<svg class="icon" height="200" version="1.1" viewBox="0 0 1024 1024" width="200"
    xmlns="http://www.w3.org/2000/svg">
    <path
        d="M64 192v518.4c0 4.693333 3.84 8.533333 8.533333 8.533333h55.466667c4.693333 0 8.533333-3.84 8.533333-8.533333v-477.866667h750.933334v477.866667c0 4.693333 3.84 8.533333 8.533333 8.533333h55.466667c4.693333 0 8.533333-3.84 8.533333-8.533333V192c0-17.493333-14.506667-32-32-32h-832c-17.493333 0-32 14.506667-32 32z"></path>
    <path
        d="M780.8 330.666667H243.2c-4.693333 0-8.533333 3.84-8.533333 8.533333v55.466667c0 4.693333 3.84 8.533333 8.533333 8.533333h537.6c4.693333 0 8.533333-3.84 8.533333-8.533333v-55.466667c0-4.693333-3.84-8.533333-8.533333-8.533333zM243.2 573.866667h537.6c4.693333 0 8.533333-3.84 8.533333-8.533334v-55.466666c0-4.693333-3.84-8.533333-8.533333-8.533334H243.2c-4.693333 0-8.533333 3.84-8.533333 8.533334v55.466666c0 4.693333 3.84 8.533333 8.533333 8.533334zM430.933333 718.933333H243.2c-4.693333 0-8.533333 3.84-8.533333 8.533334v64H72.533333c-4.693333 0-8.533333 3.84-8.533333 8.533333v55.466667c0 4.693333 3.84 8.533333 8.533333 8.533333h878.933334c4.693333 0 8.533333-3.84 8.533333-8.533333v-55.466667c0-4.693333-3.84-8.533333-8.533333-8.533333H439.466667v-64c0-4.693333-3.84-8.533333-8.533334-8.533334z"></path>
</svg>