<svg class="icon" height="200" version="1.1" viewBox="0 0 1024 1024" width="200"
    xmlns="http://www.w3.org/2000/svg">
    <path
        d="M947.2 451.490909H861.090909l48.872727-146.618182c2.327273-9.309091 0-18.618182-6.981818-25.6-6.981818-6.981818-18.618182-6.981818-25.6-2.327272 0 0-86.109091 51.2-141.963636 9.30909-2.327273-2.327273-4.654545-4.654545-9.309091-6.981818-2.327273-2.327273-4.654545-2.327273-6.981818-4.654545V81.454545c2.327273-32.581818-23.272727-58.181818-58.181818-58.181818-32.581818 0-58.181818 25.6-58.181819 58.181818v53.527273c0 6.981818 6.981818 13.963636 13.963637 13.963637s13.963636-6.981818 13.963636-13.963637V81.454545c0-16.290909 13.963636-32.581818 32.581818-32.581818 16.290909 0 30.254545 13.963636 30.254546 32.581818V279.272727c-4.654545 4.654545-9.309091 6.981818-13.963637 11.636364-58.181818 41.890909-134.981818-11.636364-134.981818-11.636364-9.309091-4.654545-18.618182-4.654545-27.927273 0-6.981818 6.981818-11.636364 16.290909-6.981818 25.6l51.2 146.618182h-104.727272L381.672727 183.854545c-2.327273-13.963636-11.636364-23.272727-23.272727-30.254545-11.636364-6.981818-25.6-9.309091-39.563636-4.654545l-174.545455 46.545454c-13.963636 2.327273-23.272727 11.636364-30.254545 23.272727-6.981818 11.636364-9.309091 25.6-4.654546 39.563637L162.909091 451.490909H76.8c-13.963636 0-23.272727 9.309091-23.272727 23.272727v470.109091c0 44.218182 34.909091 79.127273 79.127272 79.127273h761.018182c44.218182 0 79.127273-34.909091 79.127273-79.127273V474.763636c-2.327273-11.636364-11.636364-23.272727-25.6-23.272727z m-791.272727-209.454545l2.327272-2.327273 174.545455-46.545455h2.327273l2.327272 2.327273 67.49091 256H209.454545l-55.854545-207.127273c2.327273 0 2.327273-2.327273 2.327273-2.327272z m416.581818 102.4c37.236364 11.636364 88.436364 18.618182 134.981818-13.963637 2.327273 0 2.327273-2.327273 4.654546-2.327272 46.545455 32.581818 100.072727 25.6 139.636363 13.963636L814.545455 453.818182h-204.8l-37.236364-109.381818z m351.418182 600.436363c0 18.618182-13.963636 32.581818-32.581818 32.581818H132.654545c-18.618182 0-32.581818-13.963636-32.581818-32.581818V498.036364h828.509091v446.836363z"></path>
    <path
        d="M211.781818 288.581818m-27.927273 0a27.927273 27.927273 0 1 0 55.854546 0 27.927273 27.927273 0 1 0-55.854546 0Z"></path>
    <path
        d="M514.327273 598.109091c-46.545455 0-83.781818 37.236364-83.781818 83.781818 0 6.981818 6.981818 13.963636 13.963636 13.963636s13.963636-6.981818 13.963636-13.963636c0-30.254545 25.6-55.854545 55.854546-55.854545s55.854545 25.6 55.854545 55.854545c0 30.254545-25.6 55.854545-55.854545 55.854546H512h-2.327273c-6.981818 0-13.963636 6.981818-13.963636 13.963636v58.181818c0 6.981818 6.981818 13.963636 13.963636 13.963636s13.963636-6.981818 13.963637-13.963636v-44.218182c41.890909-4.654545 72.145455-39.563636 72.145454-81.454545 2.327273-48.872727-34.909091-86.109091-81.454545-86.109091z"></path>
    <path
        d="M514.327273 863.418182m-27.927273 0a27.927273 27.927273 0 1 0 55.854545 0 27.927273 27.927273 0 1 0-55.854545 0Z"></path>
</svg>