<svg class="icon" height="200" version="1.1" viewBox="0 0 1024 1024" width="200"
  xmlns="http://www.w3.org/2000/svg">
  <path
    d="M725.333333 64c117.824 0 213.333333 95.509333 213.333334 213.333333v469.333334c0 117.824-95.509333 213.333333-213.333334 213.333333H298.666667C180.842667 960 85.333333 864.490667 85.333333 746.666667V277.333333C85.333333 159.509333 180.842667 64 298.666667 64h426.666666z m0 74.666667H298.666667a138.666667 138.666667 0 0 0-138.581334 133.696L160 277.333333v469.333334a138.666667 138.666667 0 0 0 133.696 138.581333L298.666667 885.333333h426.666666a138.666667 138.666667 0 0 0 138.581334-133.696L864 746.666667V277.333333a138.666667 138.666667 0 0 0-133.696-138.581333L725.333333 138.666667z"></path>
  <path
    d="M661.333333 293.333333a37.333333 37.333333 0 0 1 3.072 74.538667L661.333333 368H362.666667a37.333333 37.333333 0 0 1-3.072-74.538667L362.666667 293.333333h298.666666zM632.917333 466.453333a37.333333 37.333333 0 0 1 58.922667 45.738667l-2.090667 2.688-174.549333 204.757333a37.333333 37.333333 0 0 1-50.048 6.186667l-2.688-2.090667-124.117333-106.624a37.333333 37.333333 0 0 1 45.973333-58.752l2.666667 2.112 95.701333 82.176 150.229333-176.213333z"></path>
</svg>