<?xml version="1.0" standalone="no"?><!DOCTYPE svg PUBLIC "-//W3C//DTD SVG 1.1//EN"
  "http://www.w3.org/Graphics/SVG/1.1/DTD/svg11.dtd">
<svg class="icon" height="200" p-id="7850" t="1642685401966" version="1.1" viewBox="0 0 1024 1024"
  width="200" xmlns="http://www.w3.org/2000/svg">
  <path
    d="M853.127968 1023.724379H170.645049a120.715909 120.715909 0 0 1-127.997546-110.902764V435.9312A197.912651 197.912651 0 0 1 0.010098 312.655341V127.997547A127.969103 127.969103 0 0 1 127.9792 0h767.786173a127.969103 127.969103 0 0 1 127.997547 127.969103v184.686238a197.912651 197.912651 0 0 1-42.665849 123.275859v476.890415a120.715909 120.715909 0 0 1-127.997547 110.931208zM127.9792 498.649998v414.171617c0 11.946438 18.346315 25.599509 42.665849 25.59951h682.482919c24.319534 0 42.665849-13.653072 42.665849-25.59951V498.649998a198.33931 198.33931 0 0 1-227.38053-62.718798 199.192627 199.192627 0 0 1-313.082 0 198.33931 198.33931 0 0 1-227.352087 62.718798z m583.099935-413.346744v227.352087a113.889373 113.889373 0 1 0 227.352087 0V127.997547a42.665849 42.665849 0 0 0-42.665849-42.665849H711.107579zM397.997136 85.331698v227.352087a113.889373 113.889373 0 0 0 227.778746 0V85.331698h-227.778746zM127.9792 85.331698a42.665849 42.665849 0 0 0-42.665849 42.665849v184.686238a113.889373 113.889373 0 1 0 227.352087 0V85.331698H128.007644z"
    p-id="7851"></path>
</svg>
