<?xml version="1.0" standalone="no"?><!DOCTYPE svg PUBLIC "-//W3C//DTD SVG 1.1//EN"
  "http://www.w3.org/Graphics/SVG/1.1/DTD/svg11.dtd">
<svg class="icon" height="200" p-id="5340" t="1642684971888" version="1.1" viewBox="0 0 1024 1024"
  width="200" xmlns="http://www.w3.org/2000/svg">
  <defs>
    <style type="text/css"></style>
  </defs>
  <path
    d="M186.368 933.888c-39.424 0-71.168-32.256-71.168-71.168V230.912c0-39.424 31.744-71.168 71.168-71.168h101.888v-43.52c0-9.216 5.12-17.92 12.8-22.528 4.096-2.048 8.192-3.584 12.8-3.584s9.216 1.024 12.8 3.584c8.192 4.608 12.8 13.312 12.8 22.528v43.52H675.84v-43.52c-0.512-9.216 4.608-17.92 12.8-23.04 4.096-2.56 8.704-3.584 13.312-3.584s9.216 1.024 13.312 3.584c8.192 4.608 12.8 13.824 12.8 23.04v43.008h100.864c39.424 0 71.168 32.256 71.168 71.168v631.808c0 39.424-31.744 71.168-71.168 71.168-0.512 0.512-642.56 0.512-642.56 0.512z m-19.968-76.288c0 13.824 11.264 25.088 25.088 25.088h631.808c13.824 0 25.088-11.264 25.088-25.088V364.032H166.4v493.568zM848.384 314.368V235.52c0-13.824-11.264-25.088-25.088-25.088H727.04v29.696c0 14.336-11.776 25.6-25.6 25.6-14.336 0-25.6-11.776-25.6-25.6v-29.696H339.456v29.696c0 9.216-5.12 17.92-12.8 22.528-4.096 2.048-8.192 3.584-12.8 3.584s-9.216-1.024-12.8-3.584c-8.192-4.608-12.8-13.312-12.8-22.528v-29.696H191.488c-13.824 0-25.088 11.264-25.088 25.088v78.848h681.984z"
    p-id="5341"></path>
  <path
    d="M279.552 724.48c-14.336 0-25.6-11.776-25.6-25.6s11.776-25.6 25.6-25.6H737.28c14.336 0 25.6 11.776 25.6 25.6s-11.776 25.6-25.6 25.6H279.552z m5.12-156.672c-9.216 0-17.408-4.608-22.016-12.8-4.608-8.192-4.608-18.432 0-26.112 4.608-7.68 13.312-12.8 22.016-12.8H743.424c14.336 0.512 25.088 11.776 25.088 25.6s-10.752 25.088-24.576 25.6l-459.264 0.512z"
    p-id="5342"></path>
</svg>
