<?xml version="1.0" standalone="no"?><!DOCTYPE svg PUBLIC "-//W3C//DTD SVG 1.1//EN"
  "http://www.w3.org/Graphics/SVG/1.1/DTD/svg11.dtd">
<svg class="icon" height="200" p-id="5209" t="1642684935163" version="1.1" viewBox="0 0 1025 1024"
  width="200.1953125" xmlns="http://www.w3.org/2000/svg">
  <defs>
    <style type="text/css"></style>
  </defs>
  <path
    d="M96.256 635.904h192c17.408 0 31.744-14.336 31.744-31.744 0-17.92-14.336-31.744-31.744-31.744h-192c-17.92 0-31.744 14.336-31.744 31.744 0 17.408 14.336 31.744 31.744 31.744z m918.528 267.776L904.704 793.6c34.304-43.52 55.296-97.792 55.296-157.184 0-141.312-114.688-256-256-256s-256 114.688-256 256 114.688 256 256 256c59.904 0 113.664-20.992 157.184-55.296l110.08 110.08c11.776 11.776 31.232 11.776 43.52 0 12.288-12.288 12.288-31.744 0-43.52z m-173.568-133.632c-0.512 0.512-1.536 0.512-2.048 1.024-0.512 0.512-0.512 1.536-1.536 2.048-34.816 33.792-81.92 54.784-134.144 54.784-105.984 0-192-86.016-192-192s86.016-192 192-192S896 529.92 896 635.904c0 52.224-20.992 99.328-54.784 134.144z m-744.96-518.144h576c17.92 0 31.744-14.336 31.744-31.744 0-17.92-14.336-31.744-31.744-31.744h-576c-17.92 0-31.744 14.336-31.744 31.744 0 17.408 14.336 31.744 31.744 31.744z m256 128h-256c-17.408 0-31.744 14.336-31.744 31.744 0 17.408 14.336 31.744 31.744 31.744h256c17.408 0 31.744-14.336 31.744-31.744 0.512-17.408-14.336-31.744-31.744-31.744z m0 384h-256c-17.408 0-31.744 14.336-31.744 31.744 0 17.408 14.336 31.744 31.744 31.744h256c17.408 0 31.744-14.336 31.744-31.744 0.512-17.408-14.336-31.744-31.744-31.744z"
    p-id="5210"></path>
</svg>
