<svg class="icon" height="200" viewBox="0 0 1028 1024" width="200.781"
    xmlns="http://www.w3.org/2000/svg">
    <path
        d="M887.5 932.3a38.4 38.4 0 0 1 0-76.8 64.051 64.051 0 0 0 64-64V232.55a64.051 64.051 0 0 0-64-64H140.8a64.051 64.051 0 0 0-64 64V791.5a64.051 64.051 0 0 0 64 64h547.02a38.4 38.4 0 0 1 0 76.8H140.8A140.954 140.954 0 0 1 0 791.5V232.55a140.954 140.954 0 0 1 140.8-140.8h746.7a140.954 140.954 0 0 1 140.8 140.8V791.5a140.954 140.954 0 0 1-140.8 140.8z" />
    <path
        d="M835.02 409.702H193.28a38.4 38.4 0 1 1 0-76.8h641.74a38.4 38.4 0 0 1 0 76.8zM557.517 632.627a38.4 38.4 0 1 0 76.8 0 38.4 38.4 0 1 0-76.8 0ZM445.03 671.027H193.28a38.4 38.4 0 1 1 0-76.8h251.75a38.4 38.4 0 0 1 0 76.8z" />
</svg>