<svg class="icon" height="200" version="1.1" viewBox="0 0 1024 1024" width="200"
  xmlns="http://www.w3.org/2000/svg">
  <path
    d="M513.28 981.333333c-10.666667 0-21.76-0.426667-32.853333-1.28C247.466667 964.266667 59.733333 776.533333 43.946667 543.573333c-17.066667-249.6 163.413333-469.333333 410.88-500.48a52.181333 52.181333 0 0 1 43.946666 88.32 278.869333 278.869333 0 0 0-76.8 229.973334c15.36 123.733333 116.48 224.853333 240.213334 240.213333 85.333333 10.666667 168.96-17.493333 229.973333-76.8 16.213333-15.36 40.106667-19.2 59.733333-9.386667 20.053333 9.813333 31.573333 31.573333 28.586667 53.333334C951.466667 805.973333 749.226667 981.333333 513.28 981.333333zM381.013333 148.053333a386.56 386.56 0 0 0-252.16 389.546667c13.226667 190.72 166.826667 344.32 357.546667 357.546667 174.506667 11.946667 331.946667-94.293333 389.546667-252.16a364.8 364.8 0 0 1-224 43.093333c-161.706667-20.48-293.973333-152.32-314.453334-314.453333-9.813333-78.506667 5.973333-156.16 43.52-223.573334z"></path>
</svg>
