<?xml version="1.0" standalone="no"?><!DOCTYPE svg PUBLIC "-//W3C//DTD SVG 1.1//EN"
  "http://www.w3.org/Graphics/SVG/1.1/DTD/svg11.dtd">
<svg class="icon" height="200" p-id="2384" t="1642685099153" version="1.1" viewBox="0 0 1024 1024"
  width="200" xmlns="http://www.w3.org/2000/svg">
  <defs>
    <style type="text/css"></style>
  </defs>
  <path
    d="M512 374.239936a37.063533 37.063533 0 0 0-37.063533 37.063533V773.247033a37.063533 37.063533 0 0 0 37.063533 37.063533 37.063533 37.063533 0 0 0 37.063533-37.063533V411.332538a37.063533 37.063533 0 0 0-37.063533-37.092602z"
    fill="#2c2c2c" p-id="2385"></path>
  <path
    d="M512 0C229.227048 0 0 229.227048 0 512s229.227048 512 512 512S1024 794.758417 1024 512 794.758417 0 512 0z m309.589508 821.618577a436.31772 436.31772 0 1 1 93.865213-139.199001 436.59388 436.59388 0 0 1-93.836144 139.199001z"
    fill="#2c2c2c" p-id="2386"></path>
  <path
    d="M512 229.648555m-40.697212 0a40.697212 40.697212 0 1 0 81.394424 0 40.697212 40.697212 0 1 0-81.394424 0Z"
    fill="#2c2c2c" p-id="2387"></path>
</svg>
