<?xml version="1.0" standalone="no"?><!DOCTYPE svg PUBLIC "-//W3C//DTD SVG 1.1//EN"
  "http://www.w3.org/Graphics/SVG/1.1/DTD/svg11.dtd">
<svg class="icon" height="200" p-id="6107" t="1642685340074" version="1.1" viewBox="0 0 1024 1024"
  width="200" xmlns="http://www.w3.org/2000/svg">
  <path
    d="M523.296 144.8c5.216 0 15.328 3.872 30.112 11.488l349.888 195.68c2.368 4.128 2.848 8.096 2.88 10.496 0.032 2.208-0.256 4.992-1.472 7.776l-348.704 184.576c-11.392 5.792-21.856 8.736-31.072 8.736-8.48 0-16.288-2.432-24.608-7.616l-1.536-0.96-1.6-0.864L140.64 358.112c-2.272-4.096-2.752-8-2.784-10.336-0.032-2.176 0.256-4.928 1.408-7.648l354.624-184.704C500.128 152.352 516 144.8 523.296 144.8M523.296 80.8c-17.376 0-34.624 5.952-58.176 17.44L97.472 289.696c-32.16 32.16-31.392 85.536 1.696 118.656l367.168 201.792c18.24 11.424 37.856 17.376 58.56 17.376 19.168 0 39.264-5.088 60.064-15.68l361.536-191.36c32.16-32.16 31.392-85.536-1.696-118.656l-361.088-201.92C558.88 87.008 541.024 80.8 523.296 80.8L523.296 80.8z"
    p-id="6108"></path>
  <path
    d="M759.968 556.128 759.968 556.128c-17.536 2.24-29.952 18.24-27.744 35.776l18.208 174.88-222.688 121.664-234.912-130.24 19.168-175.328c2.24-17.536-10.176-33.568-27.744-35.776l0 0c-17.536-2.208-33.536 10.176-35.776 27.712l-19.648 205.024c-1.056 11.488 4.8 22.528 14.912 28.096l222.592 117.92c35.168 22.016 75.36 23.68 118.656 1.696l217.344-115.04c10.496-5.568 16.544-16.96 15.264-28.8l-21.856-199.872C793.504 566.304 777.504 553.92 759.968 556.128z"
    p-id="6109"></path>
  <path d="M75.744 367.904l0 264c0 17.664 14.336 32 32 32s32-14.336 32-32l0-264L75.744 367.904z"
    p-id="6110"></path>
  <path
    d="M107.744 693.92c-17.664 0-32 14.336-32 32l0 60c0 17.664 14.336 32 32 32s32-14.336 32-32l0-60C139.744 708.256 125.408 693.92 107.744 693.92z"
    p-id="6111"></path>
</svg>
