<svg class="icon" height="200" version="1.1" viewBox="0 0 1024 1024" width="200"
  xmlns="http://www.w3.org/2000/svg">
  <path
    d="M249.473632 143.708073C170.517371 193.103724 121.377656 284.856786 121.377656 383.072232c0 12.028993 9.725569 21.754561 21.818545 21.754561 12.028993 0 21.754561-9.725569 21.754561-21.754561 0-83.371157 41.269683-160.983754 107.685079-202.509373 10.173457-6.3984 13.308673-19.835041 6.910272-30.008498C273.211697 140.444889 259.775056 137.309673 249.473632 143.708073L249.473632 143.708073zM607.592102 447.312172C596.010997 443.6011 583.854036 449.807548 580.07898 461.260685 549.942514 553.973507 468.938765 616.357911 378.72132 616.357911c-12.028993 0-21.754561 9.725569-21.754561 21.626593 0 12.092977 9.725569 21.754561 21.754561 21.754561 109.156711 0 206.604349-74.221445 242.819295-184.977756C625.251687 463.372157 619.045239 451.023244 607.592102 447.312172L607.592102 447.312172zM890.72132 360.741815c-11.837041-2.687328-23.290177 4.542864-26.04149 16.251937-14.652337 63.024244-56.305924 115.683079-111.204199 140.636841-11.005249 4.926768-15.868033 17.851537-10.877281 28.792802 3.775056 7.998 11.517121 12.796801 19.899025 12.796801 3.007248 0 6.142464-0.511872 9.021745-1.855536 67.11922-30.648338 117.986503-94.312422 135.582104-170.453387C909.724569 375.138215 902.55836 363.429143 890.72132 360.741815L890.72132 360.741815zM1000.453887 352.871782c0-184.593852-139.997001-334.828293-311.858035-334.828293-46.324419 0-92.072982 11.133217-133.662584 32.311922C502.978255 18.491377 443.089228 0 379.04124 0 183.058235 0 23.546113 171.413147 23.546113 382.112472c0 179.219195 115.619095 329.709573 270.780305 370.595351l-21.114721 26.36141c-5.310672 6.526368-6.334416 15.484129-2.687328 23.098225 3.583104 7.486128 11.197201 12.220945 19.579105 12.220945l56.945764 0c-23.930017 49.139715 1.023744 76.972757 19.899025 97.895526 7.486128 8.445889 14.588353 16.315921 18.939265 25.337666 5.310672 10.621345 6.590352 19.515121 3.903024 26.617346-3.711072 9.725569-14.908273 16.251937-19.003249 17.723569-11.069233 4.414896-16.635841 17.019745-12.284929 28.152962 3.263184 8.509873 11.581105 13.884529 20.282929 13.884529 2.623344 0 5.246688-0.511872 7.806048-1.407648 3.263184-1.215696 32.247938-13.244689 43.765059-42.613347 5.054736-12.988753 8.253937-34.35941-5.374656-61.872532-7.03824-14.332417-16.891777-25.209698-25.529618-34.743314-19.899025-22.330417-28.152962-31.352162-2.815296-67.055236 0.447888-0.63984 0.511872-1.343664 0.895776-1.91952L437.138715 814.388403c8.189953 0 15.740065-4.47888 19.387153-11.837041 3.775056-7.294176 3.071232-16.123969-1.663584-22.650337l-15.612097-21.626593c62.832292-11.709073 120.16196-40.821795 167.254186-82.859285 7.03824 2.175456 14.332417 4.030992 21.626593 5.502624L618.917271 691.027243c-5.630592 6.590352-7.03824 15.612097-3.583104 23.354161 3.455136 7.742064 11.325169 12.860785 19.835041 12.860785l32.055986 0c-29.112722 58.609348-5.566608 89.64159 13.884529 115.107223 7.230192 9.533617 14.268433 18.491377 18.619345 28.984754 15.740065 37.046738-7.35816 51.955011-14.652337 55.410147-10.941265 5.11872-15.676081 17.851537-10.685329 28.728818 3.583104 8.125969 11.581105 12.860785 19.835041 12.860785 2.87928 0 6.014496-0.767808 8.893777-1.983504 19.707073-8.893777 64.687828-46.388403 36.726818-111.972007-6.654336-15.612097-15.996001-27.897026-24.249938-38.646338-18.619345-24.505874-28.856786-38.006498-2.87928-81.259685 1.535616-2.367408 2.175456-4.862784 2.623344-7.35816l24.889778 0c8.381905 0 15.868033-4.606848 19.515121-12.028993 3.903024-7.35816 2.943264-16.315921-1.983504-22.714321l-8.573857-11.261185C892.128968 650.973257 1000.453887 515.327168 1000.453887 352.871782L1000.453887 352.871782zM335.596101 771.071232l7.03824-9.021745c12.028993 1.343664 24.12197 1.983504 36.406898 1.983504 3.51912 0 6.974256-0.383904 10.493377-0.383904l5.246688 7.294176L335.596101 771.071232 335.596101 771.071232zM596.586853 591.084229C596.074981 591.596101 595.627093 592.235941 595.243189 592.875781 589.100725 600.233942 582.63834 607.336166 575.856036 614.246438c-50.099475 50.611347-116.322919 82.219445-189.328668 84.202949-0.063984 0-0.127968 0-0.191952 0l-35.191202-1.727568c-1.407648-0.127968-2.623344 0-3.903024 0.127968C202.189453 679.510122 88.937766 545.015746 88.937766 382.112472c0-174.676331 130.207448-316.848788 290.231442-316.848788 57.713572 0 111.524119 18.747313 156.824794 50.611347 19.643089 13.820545 37.174706 29.88053 52.850787 47.732067 2.111472 2.55936 4.350912 5.182704 6.526368 7.806048C600.553862 177.683579 605.416646 184.273932 610.087478 190.928268c2.23944 3.263184 4.47888 6.462384 6.654336 9.789553 4.926768 7.67808 9.533617 15.676081 13.884529 23.738065C631.586103 226.631342 632.993752 228.742814 634.017496 230.982254c5.054736 10.109473 9.533617 20.602849 13.564609 31.224194 1.343664 3.711072 2.495376 7.550112 3.903024 11.325169 2.367408 7.614096 4.7988 15.292177 6.782304 23.098225 1.215696 4.15896 1.91952 8.317921 2.943264 12.540865 1.727568 8.125969 3.1992 16.379905 4.350912 24.697826 0.511872 3.775056 1.215696 7.550112 1.535616 11.325169 1.343664 12.092977 2.111472 24.44189 2.111472 36.854786C669.336666 458.957261 643.167208 533.434641 596.586853 591.084229L596.586853 591.084229zM688.595851 622.372407c-10.685329 0-21.242689-0.767808-31.864034-2.23944 0.383904-0.511872 0.63984-0.895776 1.023744-1.343664 17.979505-24.377906 33.335666-51.187203 45.364659-79.980005 0.127968-0.255936 0.255936-0.575856 0.383904-0.831792C706.703324 529.787553 709.710572 521.469633 712.717821 513.151712c0.895776-2.55936 1.663584-5.054736 2.495376-7.550112 2.303424-7.422144 4.286928-14.780305 6.3984-22.394401 1.151712-4.030992 1.983504-8.061985 2.87928-12.156961 1.471632-6.590352 2.943264-13.180705 4.030992-19.899025 1.151712-6.014496 1.855536-12.028993 2.623344-18.107473 0.767808-5.246688 1.343664-10.429393 1.791552-15.612097 1.215696-11.773057 1.663584-23.546113 1.663584-35.383154 0-13.564609-0.767808-26.937266-1.983504-40.117971-0.383904-4.286928-1.27968-8.509873-1.663584-12.796801-1.343664-8.829793-2.367408-17.595601-4.030992-26.169458-1.151712-5.43864-2.623344-10.685329-3.83904-16.059985-1.663584-7.166208-3.327168-14.460385-5.566608-21.434641-1.727568-6.014496-4.030992-11.837041-6.014496-17.659585-2.111472-6.142464-4.222944-12.220945-6.654336-18.171457-2.495376-6.206448-5.374656-12.156961-8.125969-18.235441-2.623344-5.374656-4.990752-10.749313-7.742064-15.996001-3.135216-6.014496-6.590352-11.837041-9.981505-17.659585-2.87928-5.054736-6.014496-9.981505-9.149713-14.780305-3.583104-5.502624-7.35816-10.877281-11.261185-16.187953-3.775056-4.926768-7.35816-9.853537-11.261185-14.588353C643.487128 127.456136 639.776056 122.849288 635.617096 118.370407 630.946263 113.059735 626.019495 108.004999 621.092727 102.950262 618.853287 100.710822 616.869783 98.151462 614.502374 95.848038c23.866033-8.189953 49.011747-12.476881 74.093477-12.476881 135.902024 0 246.594351 120.929768 246.594351 269.500625C934.99825 501.506623 824.497876 622.372407 688.595851 622.372407L688.595851 622.372407z"></path>
</svg>
