<?xml version="1.0" standalone="no"?><!DOCTYPE svg PUBLIC "-//W3C//DTD SVG 1.1//EN"
  "http://www.w3.org/Graphics/SVG/1.1/DTD/svg11.dtd">
<svg class="icon" height="200" p-id="1314" t="1642685020885" version="1.1" viewBox="0 0 1024 1024"
  width="200" xmlns="http://www.w3.org/2000/svg">
  <path
    d="M217.547648 5.848611H75.008502a71.679169 71.679169 0 0 0-71.679169 71.679168V946.688897a71.679169 71.679169 0 0 0 71.679169 71.679168h142.539146a71.679169 71.679169 0 0 0 71.679169-71.679168V77.322981a71.679169 71.679169 0 0 0-71.679169-71.47437z m-6.399926 77.874296v116.939444a9.727887 9.727887 0 0 0-1.279985 0h-128.510509V83.722907zM81.357228 940.34017V278.383049h128.664107a9.727887 9.727887 0 0 0 1.279986 0v661.957121zM1019.791142 918.990018L883.805519 60.324779a71.679169 71.679169 0 0 0-81.919049-59.442511l-140.798367 22.322941a70.962377 70.962377 0 0 0-46.59146 28.620468 68.300008 68.300008 0 0 0-5.631934 9.215893 71.679169 71.679169 0 0 0-69.426395-55.192959H396.899168a71.679169 71.679169 0 0 0-71.679169 71.679168V946.688897a71.679169 71.679169 0 0 0 71.679169 71.679168h142.539146a71.679169 71.679169 0 0 0 71.679169-71.679168V162.672391l126.872128 801.014709A71.679169 71.679169 0 0 0 808.286395 1024a77.106306 77.106306 0 0 0 11.315069-0.87039l140.798367-22.322941a71.679169 71.679169 0 0 0 59.391311-81.816651zM533.038388 83.722907v116.939444H403.247894V83.722907zM403.247894 940.34017V278.383049h129.790494v661.957121z m404.475308-861.532406l18.431786 115.761857a11.724664 11.724664 0 0 0-1.279985 0l-126.923328 19.916569-18.278188-115.352262z m5.836732 866.39635l-103.4228-653.816416L837.060462 271.368731a11.929462 11.929462 0 0 0 1.279985-0.358396l103.832395 653.867615z"
    p-id="1315"></path>
</svg>
