<?xml version="1.0" encoding="UTF-8" standalone="no"?>
<svg height="381.33301" id="svg2" version="1.1" viewBox="0 0 381.33301 381.333" width="381.33301"
  xmlns="http://www.w3.org/2000/svg" xml:space="preserve">
  <defs id="defs6"><clipPath
       clipPathUnits="userSpaceOnUse"
       id="clipPath18"><path
         d="M 0,841.89 H 595.28 V 0 H 0 Z"
         id="path16" /></clipPath></defs>
  <g style="display:inline" id="g12"
    transform="matrix(1.3333333,0,0,-1.3333333,-200.05986,669.68865)"><g
       id="g24"
       transform="translate(345.6494,243.2421)"><path
         style="fill:#e55456;fill-opacity:1;fill-rule:nonzero;stroke:none"
         d="m 0,0 c -0.077,-3.35 -2.856,-6.006 -6.208,-5.929 -3.349,0.076 -6.005,2.856 -5.928,6.206 0.075,3.356 2.858,6.007 6.206,5.93 C -2.578,6.13 0.076,3.354 0,0"
         id="path26" /></g>
    <g id="g28" transform="translate(387.9199,267.5165)"><path
         style="fill:#ffd762;fill-opacity:1;fill-rule:nonzero;stroke:none"
         d="m 0,0 c -0.076,-3.352 -2.855,-6.004 -6.205,-5.929 -3.351,0.077 -6.007,2.856 -5.931,6.207 0.077,3.352 2.858,6.004 6.209,5.929 C -2.578,6.131 0.076,3.353 0,0"
         id="path30" /></g>
    <g id="g32" transform="translate(376.3379,254.6376)"><path
         style="display:inline;fill:#e55456;fill-opacity:1;fill-rule:nonzero;stroke:none"
         d="m 0,0 c -0.076,-3.353 -2.855,-6.005 -6.204,-5.929 -3.352,0.075 -6.008,2.855 -5.932,6.206 0.076,3.353 2.859,6.006 6.209,5.929 C -2.578,6.13 0.076,3.352 0,0"
         id="path34" /></g>
    <g id="g36" transform="translate(362.4941,244.9121)"><path
         style="fill:#ffd762;fill-opacity:1;fill-rule:nonzero;stroke:none"
         d="m 0,0 c -0.076,-3.354 -2.855,-6.007 -6.205,-5.93 -3.351,0.077 -6.005,2.853 -5.928,6.207 0.076,3.354 2.855,6.005 6.205,5.93 C -2.579,6.13 0.077,3.354 0,0"
         id="path38" /></g>
    <g id="g40" transform="translate(389.626,285.0654)"><path
         style="fill:#e55456;fill-opacity:1;fill-rule:nonzero;stroke:none"
         d="m 0,0 c -0.077,-3.35 -2.856,-6.007 -6.206,-5.93 -3.351,0.076 -6.006,2.857 -5.929,6.207 0.076,3.353 2.856,6.004 6.206,5.927 C -2.578,6.127 0.077,3.352 0,0"
         id="path42" /></g>
    <g id="g44" transform="translate(386.8545,302.0956)"><path
         style="fill:#ffd762;fill-opacity:1;fill-rule:nonzero;stroke:none"
         d="m 0,0 c -0.077,-3.354 -2.856,-6.006 -6.207,-5.929 -3.35,0.077 -6.007,2.852 -5.93,6.207 0.078,3.354 2.858,6.008 6.208,5.93 C -2.578,6.132 0.076,3.354 0,0"
         id="path46" /></g>
    <g id="g48" transform="translate(375.7812,316.6542)"><path
         style="fill:#e55456;fill-opacity:1;fill-rule:nonzero;stroke:none"
         d="m 0,0 c -0.075,-3.35 -2.859,-6.003 -6.206,-5.927 -3.351,0.077 -6.006,2.854 -5.929,6.204 0.076,3.353 2.857,6.01 6.205,5.933 C -2.581,6.134 0.077,3.354 0,0"
         id="path50" /></g>
    <g id="g52" transform="translate(226.6201,412.8652)"><path
         style="fill:#ffd762;fill-opacity:1;fill-rule:nonzero;stroke:none"
         d="m 0,0 134.727,-86.971 c 0.002,0.04 1.431,-0.123 1.195,1.023 C 131.983,-66.896 75.185,72.883 72.243,72.101 69.82,71.458 50.604,59.508 36.791,50.304 21.736,40.273 0.834,9.464 -2.12,6.217 -5.07,2.973 0,0 0,0"
         id="path54" /></g>
    <g id="g56" transform="translate(225.1641,416.6523)"><path
         style="fill:#ffd762;fill-opacity:1;fill-rule:nonzero;stroke:none"
         d="m 0,0 c -6.307,5.045 -11.571,8.739 -15.249,11.202 -8.996,6.023 -12.172,7.553 -15.47,12.386 -0.778,1.141 -3.863,2.885 -2.653,3.127 0.975,0.195 -1.146,-1.082 -0.975,-2.435 -0.186,0.895 -0.3,1.257 -0.365,1.249 -0.254,-0.031 0.374,-7.612 0.374,-7.612 2.419,-23.783 1.638,-79.449 7.105,-80.447 C -23.618,-63.19 -16.208,-50.964 0,0"
         id="path58" /></g>
    <path style="fill:#ff485f;fill-opacity:1;fill-rule:nonzero;stroke:none"
      d="m 228.7256,417.3954 c -0.237,-0.079 -2.542,0.813 -4.916,-1.685 -3.523,-3.708 -15.158,-25.694 -21.031,-42.018 -2.771,-7.704 -4.912,-19.559 -4.91,-19.559 0.964,-0.133 16.604,-3.206 37.874,-7.289 47.507,-9.119 122.332,-21.553 126.038,-20.917 2.128,0.365 -132.979,91.493 -133.055,91.468"
      id="path62" />
    <g id="g64" transform="translate(193.75,439.0146)"><path
         style="fill:#ff485f;fill-opacity:1;fill-rule:nonzero;stroke:none"
         d="m 0,0 c 9.857,-7.019 19.715,-14.038 29.573,-21.058 1.706,-1.082 3.924,-2.195 6,1.826 22.147,42.884 64.178,59.716 65.263,61.058 0.29,0.359 4.852,3.431 4.625,4.009 -0.166,0.423 -2.058,-0.421 -2.59,-0.655 C 71.55,31.382 38.726,21.275 6.875,8.75 4.725,7.904 2.73,6.704 0.625,5.75 -2.001,4.56 -2.987,4.005 -3.359,3.158 -3.812,2.129 -1.075,0.818 0,0"
         id="path66" /></g></g></svg>
