<svg xmlns="http://www.w3.org/2000/svg" width="160.881" height="138.878"
    viewBox="0 0 160.881 138.878">
    <g id="无法连接网络" transform="translate(-906.289 -471.359)" opacity="0.8">
        <g id="编组" transform="translate(938.003 500.938)">
            <g id="分组" transform="translate(-0.001 -0.001)">
                <path
                    d="M96.154,88.333H3.847A4.045,4.045,0,0,1,0,84.123V19.5H100V84.123A4.045,4.045,0,0,1,96.154,88.333ZM100,16.168H0V4.211A4.046,4.046,0,0,1,3.847,0H96.154A4.045,4.045,0,0,1,100,4.211V16.167ZM12.079,10.139h0L13.535,11.6a1.03,1.03,0,0,0,1.456-1.457L13.535,8.683l1.456-1.456a1.03,1.03,0,1,0-1.456-1.456L12.079,7.227,10.623,5.771A1.03,1.03,0,1,0,9.167,7.227l1.456,1.456L9.167,10.139A1.03,1.03,0,0,0,10.623,11.6l1.455-1.456ZM32.756,5.5a3.09,3.09,0,1,0,3.09,3.09A3.093,3.093,0,0,0,32.756,5.5Zm-10,0a3.09,3.09,0,1,0,3.089,3.09A3.093,3.093,0,0,0,22.756,5.5Z"
                    transform="translate(0 0)" fill="#e2e5f1" />
            </g>
        </g>
        <g transform="translate(1050.893 557.866)">
            <g transform="translate(0 0)">
                <path
                    d="M35.237,306.175a5.437,5.437,0,1,1,5.437-5.437A5.475,5.475,0,0,1,35.237,306.175Zm0-9.006a3.568,3.568,0,1,0,3.568,3.568A3.59,3.59,0,0,0,35.237,297.169Z"
                    transform="translate(-29.8 -295.3)" fill="#a4bfff" />
            </g>
        </g>
        <g transform="translate(929.775 507.927)">
            <g>
                <path
                    d="M673.566,347.632l-8.266-8.266,8.266-8.266,8.266,8.266Zm-5.377-8.266,5.457,5.457,5.457-5.457-5.457-5.457Z"
                    transform="translate(-665.3 -331.1)" fill="#c2c8d8" />
            </g>
        </g>
        <path
            d="M4.225,8.6a1,1,0,0,1-1-1V5.374H1a1,1,0,0,1-1-1v-.15a1,1,0,0,1,1-1H3.225V1a1,1,0,0,1,1-1h.15a1,1,0,0,1,1,1V3.224H7.6a1,1,0,0,1,1,1v.15a1,1,0,0,1-1,1H5.375V7.6a1,1,0,0,1-1,1Z"
            transform="translate(996.521 471.359)" fill="#417aff" />
        <path
            d="M5.619,12.319a1,1,0,0,1-1-1V7.7H1a1,1,0,0,1-1-1V5.618a1,1,0,0,1,1-1H4.619V1a1,1,0,0,1,1-1H6.7a1,1,0,0,1,1,1V4.618h3.619a1,1,0,0,1,1,1V6.7a1,1,0,0,1-1,1H7.7v3.622a1,1,0,0,1-1,1Z"
            transform="translate(976.255 597.918)" fill="#c2c8d8" />
        <path
            d="M5.04,10.773a1,1,0,0,1-1-1V6.732H1a1,1,0,0,1-1-1V5.039a1,1,0,0,1,1-1H4.04V1a1,1,0,0,1,1-1h.693a1,1,0,0,1,1,1V4.039h3.04a1,1,0,0,1,1,1v.693a1,1,0,0,1-1,1H6.733V9.773a1,1,0,0,1-1,1Z"
            transform="translate(919.002 486.247)" fill="#f1f3f8" />
        <path
            d="M236.939,488.155H232.36v3.812h-3.023l7.236-12.406h-5.191l-7.6,12.9v3.718h8.58V501.4h4.578v-5.216h2.412v-4.216h-2.412Zm14.888-8.6q-4.682,0-7,2.972a14.7,14.7,0,0,0,0,15.866q2.323,2.97,7,2.97t7-2.97a14.7,14.7,0,0,0,0-15.866Q256.5,479.555,251.826,479.552Zm3.323,16.017a3.829,3.829,0,0,1-6.65,0,12.709,12.709,0,0,1,0-10.194,3.831,3.831,0,0,1,6.65,0,12.71,12.71,0,0,1,0,10.194Zm22.219-3.6v-3.812H272.79v3.812h-3.023L277,479.562h-5.191l-7.6,12.9v3.718h8.58V501.4h4.578v-5.216h2.412v-4.216Z"
            transform="translate(736.222 60.571)" fill="#fff" />
        <path
            d="M114.025,161.311,90.695,120.928a1.8,1.8,0,0,0-3.108,0L64.256,161.311A1.795,1.795,0,0,0,65.81,164h46.662A1.794,1.794,0,0,0,114.025,161.311ZM87.346,136.634a.449.449,0,0,1,.448-.448h2.693a.448.448,0,0,1,.447.448v10.32a.45.45,0,0,1-.447.448H87.794a.45.45,0,0,1-.448-.448Zm1.795,19.741a2.693,2.693,0,1,1,2.627-2.692A2.693,2.693,0,0,1,89.141,156.375Z"
            transform="translate(790.832 493.055) rotate(-30)" fill="#417aff" />
        <path
            d="M36.763,32.854H6.279a6.281,6.281,0,0,1,0-12.562h3.794A11.48,11.48,0,0,1,20.564,9.7V5.633a2.87,2.87,0,1,1,1.913,0V9.7A11.483,11.483,0,0,1,32.97,20.292h3.793a6.281,6.281,0,1,1,0,12.562Zm-2.806-8.7a2.416,2.416,0,1,0,2.391,2.416A2.406,2.406,0,0,0,33.957,24.157Zm-12.435,0a2.416,2.416,0,1,0,2.391,2.416A2.406,2.406,0,0,0,21.522,24.157Zm-12.435,0a2.416,2.416,0,1,0,2.391,2.416A2.406,2.406,0,0,0,9.086,24.157Z"
            transform="translate(1036.734 475.073) rotate(45)" fill="#697391" />
        <line x1="51" y2="20" transform="translate(962.502 507.504)" fill="none" stroke="#c2c8d8"
            stroke-width="1" stroke-dasharray="2" />
        <line x1="18" y2="58" transform="translate(1016.502 529.504)" fill="none" stroke="#c2c8d8"
            stroke-width="1" stroke-dasharray="2" />
        <path
            d="M3.865,0H19.092a3.865,3.865,0,0,1,3.865,3.865v0a0,0,0,0,1,0,0H0a0,0,0,0,1,0,0v0A3.865,3.865,0,0,1,3.865,0Z"
            transform="translate(1032.738 525.739) rotate(-135)" fill="#c2c8d8" />
    </g>
</svg>
