<?xml version="1.0" standalone="no"?>
<!DOCTYPE svg PUBLIC "-//W3C//DTD SVG 20010904//EN"
 "http://www.w3.org/TR/2001/REC-SVG-20010904/DTD/svg10.dtd">
<svg version="1.0" xmlns="http://www.w3.org/2000/svg"
 viewBox="0 0 2600.000000 2600.000000"
 preserveAspectRatio="xMidYMid meet">
<metadata>
Created by potrace 1.15, written by Peter Selinger 2001-2017
</metadata>
<g transform="translate(0.000000,2600.000000) scale(0.100000,-0.100000)"
fill="#000000" stroke="none">
<path d="M17404 23263 c6 -17 1115 -2365 1120 -2370 3 -3 2369 1116 2378 1125
5 5 -1483 542 -3405 1227 -84 30 -98 33 -93 18z"/>
<path d="M16328 21317 c-344 -964 -625 -1754 -623 -1756 3 -3 2374 1115 2382
1123 3 3 -1117 2369 -1125 2378 -4 4 -289 -781 -634 -1745z"/>
<path d="M19955 21032 c-671 -318 -1219 -583 -1218 -588 2 -10 1440 -3049
1468 -3105 l18 -34 8 30 c9 34 959 4266 959 4271 0 2 -3 4 -7 4 -5 0 -557
-261 -1228 -578z"/>
<path d="M17095 19680 c-649 -307 -1198 -567 -1219 -578 l-40 -19 535 -270
c294 -149 996 -503 1562 -787 l1027 -517 -61 -80 c-428 -552 -1018 -1147
-1622 -1633 -1227 -987 -2784 -1811 -4507 -2386 -304 -101 -937 -290 -972
-290 -4 0 -1 19 7 41 21 59 19 165 -5 240 -64 207 -297 326 -507 261 -36 -12
-330 -177 -771 -435 l-714 -416 -946 -155 c-521 -85 -1003 -159 -1072 -164
-260 -22 -470 -116 -646 -291 -128 -127 -209 -263 -259 -436 -32 -112 -62
-385 -70 -645 -14 -477 -59 -1401 -105 -2174 -28 -456 -49 -830 -47 -832 3 -4
2336 422 2342 427 7 8 -34 1170 -65 1839 -16 360 -30 664 -30 676 0 20 60 42
728 263 608 201 734 246 768 273 22 18 219 227 439 463 219 237 428 461 464
499 l66 69 215 53 c1302 317 2706 853 3861 1473 1534 823 2751 1804 3682 2969
93 116 173 212 177 212 4 0 110 -52 234 -116 125 -64 230 -114 233 -111 9 9
-1473 3132 -1488 3134 -8 1 -545 -250 -1194 -557z"/>
<path d="M19750 16938 c-221 -701 -897 -2057 -1508 -3028 -457 -726 -888
-1241 -1150 -1374 l-33 -17 48 -40 c218 -180 447 -292 625 -306 l77 -6 134
204 c934 1420 1639 3094 1807 4289 18 134 41 371 35 378 -1 1 -17 -44 -35
-100z"/>
<path d="M19991 17002 c-16 -150 -111 -718 -172 -1032 -282 -1442 -703 -2514
-1184 -3018 -55 -58 -126 -127 -158 -153 l-58 -49 113 -54 c216 -104 382 -150
543 -150 154 0 143 -11 237 249 433 1205 594 1870 674 2775 19 218 30 1160 16
1335 -5 61 -10 104 -11 97z"/>
<path d="M7835 16173 c-81 -10 -237 -48 -328 -79 -766 -267 -1204 -1076 -1007
-1860 76 -301 219 -546 447 -765 214 -205 477 -339 793 -406 120 -25 449 -26
570 0 220 46 450 143 621 262 114 80 310 278 387 392 257 380 341 837 232
1271 -75 296 -218 542 -442 758 -296 285 -678 437 -1091 433 -84 -1 -165 -4
-182 -6z"/>
<path d="M9094 8016 c-214 -218 -420 -459 -604 -706 -91 -123 -290 -418 -345
-513 -15 -26 -29 -47 -30 -45 -2 2 -10 53 -19 113 -48 326 -163 551 -343 671
-181 120 -461 166 -873 144 -118 -6 -217 -14 -219 -16 -3 -3 -60 -331 -127
-730 l-122 -726 -94 -97 c-129 -131 -1337 -1399 -1416 -1486 -70 -77 -132
-191 -159 -295 -24 -88 -23 -263 0 -350 114 -419 559 -638 958 -471 41 17 100
51 132 75 91 68 1893 1752 1931 1804 90 125 96 144 261 857 63 275 119 510
125 523 5 12 18 22 27 21 17 0 713 -838 754 -907 10 -15 175 -576 368 -1247
240 -835 362 -1242 386 -1290 80 -165 228 -286 410 -336 68 -18 97 -21 195
-16 120 5 177 20 276 70 201 102 343 335 344 562 0 78 -372 2816 -396 2910
-20 82 -53 150 -105 221 -82 112 -1152 1404 -1163 1404 -5 0 -74 -65 -152
-144z"/>
</g>
</svg>
