<svg version="1.1" xmlns="http://www.w3.org/2000/svg" viewBox="0 0 142.8 138.9">
    <g opacity="0.8">
        <path fill="#E2E5F1" d="M115.2,117.9H22.8c-2.2-0.1-3.9-2-3.8-4.2V49.1h100v64.6C119.1,115.9,117.4,117.8,115.2,117.9z M119,45.7
		H19v-12c-0.1-2.2,1.6-4.1,3.8-4.2h92.3c2.2,0.1,3.9,2,3.8,4.2V45.7L119,45.7z M31.1,39.7l1.5,1.5c0.4,0.4,1.1,0.4,1.5,0
		c0.4-0.4,0.4-1,0-1.4l-1.5-1.5l1.5-1.5c0.4-0.4,0.4-1,0-1.5c-0.4-0.4-1-0.4-1.5,0c0,0,0,0,0,0l-1.5,1.5l-1.5-1.5
		c-0.4-0.4-1-0.4-1.5,0c-0.4,0.4-0.4,1,0,1.5c0,0,0,0,0,0l1.5,1.5l-1.5,1.5c-0.4,0.4-0.4,1.1,0,1.5s1.1,0.4,1.5,0L31.1,39.7
		L31.1,39.7z M51.8,35.1c-1.7,0-3.1,1.4-3.1,3.1c0,1.7,1.4,3.1,3.1,3.1c1.7,0,3.1-1.4,3.1-3.1v0C54.8,36.5,53.5,35.1,51.8,35.1z
		 M41.8,35.1c-1.7,0-3.1,1.4-3.1,3.1c0,1.7,1.4,3.1,3.1,3.1c1.7,0,3.1-1.4,3.1-3.1c0,0,0,0,0,0C44.8,36.5,43.5,35.1,41.8,35.1z" />
        <path fill="#A4BFFF" d="M137.3,97.4c-3,0-5.4-2.4-5.4-5.4c0-3,2.4-5.4,5.4-5.4c3,0,5.4,2.4,5.4,5.4v0
		C142.7,94.9,140.3,97.4,137.3,97.4z M137.3,88.4c-2,0-3.6,1.6-3.6,3.6s1.6,3.6,3.6,3.6c2,0,3.6-1.6,3.6-3.6v0
		C140.9,90,139.3,88.4,137.3,88.4z" />
        <path fill="#C2C8D8"
            d="M19,53.1l-8.3-8.3l8.3-8.3l8.3,8.3L19,53.1z M13.7,44.8l5.5,5.5l5.5-5.5l-5.5-5.5L13.7,44.8z" />
        <path fill="#417AFF" d="M81.7,8.6c-0.6,0-1-0.4-1-1V5.4h-2.2c-0.6,0-1-0.4-1-1V4.2c0-0.6,0.4-1,1-1h2.2V1c0-0.6,0.4-1,1-1h0.2
		c0.6,0,1,0.4,1,1v2.2h2.2c0.6,0,1,0.4,1,1v0.2c0,0.6-0.4,1-1,1h-2.2v2.2c0,0.6-0.4,1-1,1l0,0H81.7z" />
        <path fill="#C2C8D8" d="M62.9,138.9c-0.6,0-1-0.4-1-1v-3.6h-3.6c-0.6,0-1-0.4-1-1v-1.1c0-0.6,0.4-1,1-1h3.6v-3.6c0-0.6,0.4-1,1-1
		H64c0.6,0,1,0.4,1,1v3.6h3.6c0.6,0,1,0.4,1,1v1.1c0,0.6-0.4,1-1,1H65v3.6c0,0.6-0.4,1-1,1L62.9,138.9z" />
        <path fill="#F1F3F8" d="M5,25.7c-0.6,0-1-0.4-1-1v-3H1c-0.6,0-1-0.4-1-1v-0.7c0-0.6,0.4-1,1-1h3v-3c0-0.6,0.4-1,1-1h0.7
		c0.6,0,1,0.4,1,1v3h3c0.6,0,1,0.4,1,1v0.7c0,0.6-0.4,1-1,1h-3v3c0,0.6-0.4,1-1,1L5,25.7z" />
        <path fill="#FFFFFF" d="M54.2,77.4h-4.6v3.8h-3l7.2-12.4h-5.2L41,81.7v3.7h8.6v5.2h4.6v-5.2h2.4v-4.2h-2.4L54.2,77.4z M69,68.8
		c-3.1,0-5.5,1-7,3c-3.1,4.8-3.1,11,0,15.9c1.5,2,3.9,3,7,3c3.1,0,5.5-1,7-3c3.1-4.8,3.1-11,0-15.9C74.5,69.8,72.2,68.8,69,68.8
		L69,68.8z M72.4,84.8c-1,1.8-3.4,2.5-5.2,1.4c-0.6-0.3-1.1-0.8-1.4-1.4c-1.4-3.2-1.4-6.9,0-10.2c1.1-1.8,3.4-2.5,5.2-1.4
		c0.6,0.3,1.1,0.8,1.4,1.4C73.8,77.8,73.8,81.5,72.4,84.8z M94.6,81.2v-3.8H90v3.8h-3l7.2-12.4H89l-7.6,12.9v3.7H90v5.2h4.6v-5.2H97
		v-4.2L94.6,81.2z" />
        <path fill="#417AFF" d="M51.2,104.4L10.8,81.1c-0.9-0.5-2-0.2-2.5,0.7c-0.2,0.3-0.2,0.6-0.2,0.9l0,46.6c0,1,0.8,1.8,1.8,1.8
		c0.3,0,0.6-0.1,0.9-0.2l40.4-23.3c0.9-0.5,1.2-1.6,0.7-2.5C51.7,104.8,51.5,104.5,51.2,104.4z M15.8,96.4c-0.1-0.2,0-0.5,0.2-0.6
		l2.3-1.3c0.2-0.1,0.5,0,0.6,0.2l5.2,8.9c0.1,0.2,0,0.5-0.2,0.6l-2.3,1.3c-0.2,0.1-0.5,0-0.6-0.2L15.8,96.4z M27.2,112.6
		c-1.3,0.8-2.9,0.4-3.7-0.9s-0.4-2.9,0.9-3.7c1.3-0.8,2.9-0.4,3.7,0.9c0,0,0,0,0,0.1C28.9,110.2,28.5,111.8,27.2,112.6L27.2,112.6z" />
        <path fill="#697391" d="M120.5,52.9L98.9,31.4c-2.4-2.5-2.4-6.5,0.1-8.9c2.4-2.4,6.3-2.4,8.8,0l2.7,2.7c4.3-3.7,10.6-3.7,14.9-0.1
		l2.9-2.9c-0.7-1.4-0.1-3.1,1.4-3.8c1.4-0.7,3.1-0.1,3.8,1.4s0.1,3.1-1.4,3.8c-0.8,0.4-1.7,0.4-2.5,0l-2.9,2.9
		c3.6,4.3,3.6,10.6-0.1,14.9l2.7,2.7c2.5,2.5,2.5,6.4,0,8.9C126.9,55.4,122.9,55.4,120.5,52.9L120.5,52.9z M124.7,44.8
		c-0.9-1-2.5-1-3.4,0c-1,0.9-1,2.5,0,3.4s2.5,1,3.4,0c0,0,0,0,0,0C125.6,47.3,125.6,45.8,124.7,44.8L124.7,44.8z M115.9,36
		c-0.9-1-2.5-1-3.4,0c-1,0.9-1,2.5,0,3.4s2.5,1,3.4,0c0,0,0,0,0,0C116.8,38.5,116.8,37,115.9,36L115.9,36z M107.1,27.2
		c-0.9-1-2.5-1-3.4,0s-1,2.5,0,3.4s2.5,1,3.4,0c0,0,0,0,0,0C108,29.7,108,28.2,107.1,27.2L107.1,27.2z" />
        <path fill="none" stroke="#C2C8D8" stroke-dasharray="2"
            d="M94.5,36.1l-51,20 M115.5,58.1l-18,58" />
        <path fill="#C2C8D8" d="M111,51.6l-10.8-10.8c-1.5-1.5-1.5-4,0-5.5c0,0,0,0,0,0l16.2,16.2C115,53.2,112.5,53.2,111,51.6
		C111,51.6,111,51.6,111,51.6L111,51.6z" />
    </g>
</svg>
