<svg xmlns="http://www.w3.org/2000/svg" width="160.881" height="138.878">
    <g opacity=".8">
        <path
            d="M127.867 117.911H35.56a4.045 4.045 0 0 1-3.847-4.21V49.078h100v64.623a4.045 4.045 0 0 1-3.846 4.21Zm3.846-72.165h-100V33.789a4.046 4.046 0 0 1 3.847-4.211h92.307a4.045 4.045 0 0 1 3.846 4.211v11.956Zm-87.921-6.029 1.456 1.461a1.03 1.03 0 0 0 1.456-1.457l-1.456-1.46 1.456-1.456a1.03 1.03 0 1 0-1.456-1.456l-1.456 1.456-1.456-1.456a1.03 1.03 0 1 0-1.456 1.456l1.456 1.456-1.456 1.456a1.031 1.031 0 0 0 1.456 1.461l1.455-1.456Zm20.677-4.639a3.09 3.09 0 1 0 3.09 3.09 3.093 3.093 0 0 0-3.09-3.09Zm-10 0a3.09 3.09 0 1 0 3.089 3.09 3.093 3.093 0 0 0-3.089-3.09Z"
            fill="#e2e5f1" />
        <path
            d="M150.041 97.382a5.437 5.437 0 1 1 5.437-5.437 5.475 5.475 0 0 1-5.437 5.437Zm0-9.006a3.568 3.568 0 1 0 3.568 3.568 3.59 3.59 0 0 0-3.568-3.568Z"
            fill="#a4bfff" />
        <path
            d="m31.752 53.1-8.266-8.266 8.266-8.266 8.266 8.266Zm-5.377-8.266 5.457 5.457 5.457-5.457-5.457-5.457Z"
            fill="#c2c8d8" />
        <path
            d="M94.457 8.6a1 1 0 0 1-1-1V5.374h-2.225a1 1 0 0 1-1-1v-.15a1 1 0 0 1 1-1h2.225V1a1 1 0 0 1 1-1h.15a1 1 0 0 1 1 1v2.224h2.225a1 1 0 0 1 1 1v.15a1 1 0 0 1-1 1h-2.225V7.6a1 1 0 0 1-1 1Z"
            fill="#417aff" />
        <path
            d="M75.585 138.878a1 1 0 0 1-1-1v-3.619h-3.619a1 1 0 0 1-1-1v-1.082a1 1 0 0 1 1-1h3.619v-3.618a1 1 0 0 1 1-1h1.081a1 1 0 0 1 1 1v3.618h3.619a1 1 0 0 1 1 1v1.082a1 1 0 0 1-1 1h-3.619v3.622a1 1 0 0 1-1 1Z"
            fill="#c2c8d8" />
        <path
            d="M17.753 25.661a1 1 0 0 1-1-1V21.62h-3.04a1 1 0 0 1-1-1v-.693a1 1 0 0 1 1-1h3.04v-3.039a1 1 0 0 1 1-1h.693a1 1 0 0 1 1 1v3.039h3.04a1 1 0 0 1 1 1v.693a1 1 0 0 1-1 1h-3.04v3.041a1 1 0 0 1-1 1Z"
            fill="#f1f3f8" />
        <path
            d="M66.872 77.367h-4.579v3.812H59.27l7.236-12.406h-5.191l-7.6 12.9v3.718h8.58v5.221h4.578v-5.216h2.412V81.18h-2.412Zm14.888-8.6q-4.682 0-7 2.972a14.7 14.7 0 0 0 0 15.866q2.323 2.97 7 2.97t7-2.97a14.7 14.7 0 0 0 0-15.866q-2.327-2.972-7.001-2.975Zm3.323 16.017a3.829 3.829 0 0 1-6.65 0 12.709 12.709 0 0 1 0-10.194 3.831 3.831 0 0 1 6.65 0 12.71 12.71 0 0 1 0 10.194Zm22.219-3.6v-3.812h-4.579v3.812H99.7l7.233-12.41h-5.191l-7.6 12.9v3.718h8.58v5.22h4.578v-5.216h2.412V81.18Z"
            fill="#fff" />
        <path
            d="M63.947 104.383 23.551 81.075a1.8 1.8 0 0 0-2.691 1.554l-.014 46.638a1.795 1.795 0 0 0 2.69 1.552l40.41-23.33a1.794 1.794 0 0 0 .001-3.106Zm-35.443-8.031a.449.449 0 0 1 .164-.612L31 94.393a.448.448 0 0 1 .611.165l5.16 8.937a.45.45 0 0 1-.163.611l-2.332 1.347a.45.45 0 0 1-.612-.164Zm11.425 16.198a2.693 2.693 0 1 1 .929-3.645 2.693 2.693 0 0 1-.93 3.645Z"
            fill="#417aff" />
        <path
            d="m133.21 52.94-21.556-21.555a6.281 6.281 0 0 1 8.882-8.882l2.683 2.682a11.48 11.48 0 0 1 14.908-.071l2.876-2.876a2.87 2.87 0 1 1 1.353 1.353l-2.876 2.876a11.483 11.483 0 0 1-.07 14.909l2.682 2.682a6.281 6.281 0 1 1-8.883 8.883Zm4.167-8.135a2.416 2.416 0 1 0-.018 3.399 2.406 2.406 0 0 0 .016-3.397Zm-8.793-8.793a2.416 2.416 0 1 0-.018 3.399 2.406 2.406 0 0 0 .016-3.397Zm-8.793-8.793a2.416 2.416 0 1 0-.018 3.399 2.406 2.406 0 0 0 .015-3.398Z"
            fill="#697391" />
        <path fill="none" stroke="#c2c8d8" stroke-dasharray="2"
            d="m107.213 36.145-51 20M128.213 58.145l-18 58" />
        <path
            d="M123.716 51.647 112.949 40.88a3.865 3.865 0 0 1 0-5.466l16.233 16.233a3.865 3.865 0 0 1-5.466 0Z"
            fill="#c2c8d8" />
    </g>
</svg>