<svg xmlns="http://www.w3.org/2000/svg" width="300" height="300"><g fill="#fefefe"><path d="M156.29 36.43c3.96-.38 8-1.54 11.97-.71 4.84 4.91 8.16 11.1 11.67 16.98-10.17-2.53-20.45.97-30.46 2.67-1.39 9.3-.85 18.86-3.52 27.95-5.42-6.53-9.34-14.11-14.04-21.14-4.27-7.01-9.13-13.67-12.83-21.02 12.33-2.11 24.83-2.92 37.21-4.73ZM116.24 42.66c5.31 6.58 9.46 13.96 14.17 20.96 3.94 6.6 9.08 12.53 11.82 19.8-8.68-3.33-16.3-8.76-24.4-13.22-7.26 6.82-11.33 16.21-18.55 23.08-2.02-3.56-4.36-7.01-5.6-10.94-.75-2.14.61-4.19 1.54-6.02 2.81-4.82 5.91-9.47 8.86-14.21 4.2-6.39 7.72-13.21 12.16-19.45Z"/><path d="M167.68 56.59c13.27-1.81 26.34-4.95 39.67-6.43-1.14 6.75-3.21 13.28-5.25 19.79-.68 1.89-1.28 3.91-2.69 5.4-2.74 1.37-5.83 1.75-8.8 2.37-14.38 2.64-28.59 6.08-42.9 9.08 1.65-5.41 3.96-10.56 6.4-15.65 1.99-4.06 3.12-8.59 5.83-12.26 2.2-1.66 5.13-1.77 7.74-2.3ZM117.23 72.08c4.65 2.07 9.11 4.54 13.42 7.25 4.84 2.7 9.74 5.33 14.3 8.5-10.32 13.18-20.19 26.69-30.33 40.01-9.06-4.72-18.04-9.7-26.36-15.64 9.07-13.79 19.66-26.5 28.97-40.12ZM159 86.51c12.27-2.8 24.59-5.54 37.04-7.41-4.21 7.54-10.07 13.94-15.01 20.98-2.39 3.22-4.45 6.72-7.33 9.54-2.61-1.02-3.53-4.11-5.05-6.25-3.23-5.61-6.94-10.95-9.65-16.86ZM156.2 118.31c4.91-1.67 9.85-3.25 14.93-4.35-.8 6.98-1.64 14.18-4.57 20.63-4.22 3.05-9.62 3.72-14.45 5.45-13.15 3.72-25.82 9.07-39.18 12.03.07-7.18 1.38-14.23 2.91-21.22 13.3-4.64 26.89-8.42 40.36-12.54Z"/></g><g fill="#d8d8d8"><path d="M133.18 37.45c11.84-1.42 23.66-2.98 35.52-4.18 4.6 5.21 7.81 11.43 12.05 16.89 1.71 2.73 5.2 1.95 7.87 1.63 6.81-1.2 13.58-2.69 20.46-3.51-.78 8.5-4.41 16.31-6.17 24.59 2.74-1.71 5.51-3.37 8.34-4.93-2.08 4.18-4.67 8.08-7.6 11.7-5.33 6.67-9.39 14.45-16.04 19.98-4.35 3.97-9.53 7.19-12.9 12.1-4.1 7.49-2.71 16.76-6.75 24.25-4.31 2.97-9.72 3.62-14.58 5.34-13.96 4.61-28.08 8.72-41.95 13.59.01-2.06-1.19-3.98-.58-6.06 1.12-6.23 2.36-12.45 3.2-18.74-7.52-5.44-15.82-9.64-23.71-14.48-1.43-1.01-3.85-2.16-2.9-4.32 2.24-5.91 7.92-9.69 10.38-15.47-.17-5.77-5.24-10.01-5.99-15.62 1.37-4.32 4.5-7.79 6.73-11.69 4.55-7.74 9.56-15.22 13.99-23.03 1.51-2.33 2.93-5.2 5.78-6.06 4.83-1.37 9.9-1.34 14.85-1.98m23.11-1.02c-12.38 1.81-24.88 2.62-37.21 4.73 3.7 7.35 8.56 14.01 12.83 21.02 4.7 7.03 8.62 14.61 14.04 21.14 2.67-9.09 2.13-18.65 3.52-27.95 10.01-1.7 20.29-5.2 30.46-2.67-3.51-5.88-6.83-12.07-11.67-16.98-3.97-.83-8.01.33-11.97.71m-40.05 6.23c-4.44 6.24-7.96 13.06-12.16 19.45-2.95 4.74-6.05 9.39-8.86 14.21-.93 1.83-2.29 3.88-1.54 6.02 1.24 3.93 3.58 7.38 5.6 10.94 7.22-6.87 11.29-16.26 18.55-23.08 8.1 4.46 15.72 9.89 24.4 13.22-2.74-7.27-7.88-13.2-11.82-19.8-4.71-7-8.86-14.38-14.17-20.96m51.44 13.93c-2.61.53-5.54.64-7.74 2.3-2.71 3.67-3.84 8.2-5.83 12.26-2.44 5.09-4.75 10.24-6.4 15.65 14.31-3 28.52-6.44 42.9-9.08 2.97-.62 6.06-1 8.8-2.37 1.41-1.49 2.01-3.51 2.69-5.4 2.04-6.51 4.11-13.04 5.25-19.79-13.33 1.48-26.4 4.62-39.67 6.43m-50.45 15.49c-9.31 13.62-19.9 26.33-28.97 40.12 8.32 5.94 17.3 10.92 26.36 15.64 10.14-13.32 20.01-26.83 30.33-40.01-4.56-3.17-9.46-5.8-14.3-8.5-4.31-2.71-8.77-5.18-13.42-7.25M159 86.51c2.71 5.91 6.42 11.25 9.65 16.86 1.52 2.14 2.44 5.23 5.05 6.25 2.88-2.82 4.94-6.32 7.33-9.54 4.94-7.04 10.8-13.44 15.01-20.98-12.45 1.87-24.77 4.61-37.04 7.41m-2.8 31.8c-13.47 4.12-27.06 7.9-40.36 12.54-1.53 6.99-2.84 14.04-2.91 21.22 13.36-2.96 26.03-8.31 39.18-12.03 4.83-1.73 10.23-2.4 14.45-5.45 2.93-6.45 3.77-13.65 4.57-20.63-5.08 1.1-10.02 2.68-14.93 4.35ZM147.15 187.72c12.15.1 24.79.83 35.91 6.22 3.01 1.53 6.65 4.04 6.36 7.86-.81 3.02-3.7 4.86-6.27 6.29-5.86 2.87-12.33 4.21-18.73 5.21-15.58 1.94-31.71 1.71-46.82-2.9-4.12-1.45-8.77-3.03-11.21-6.91-1.76-3.34.62-6.96 3.65-8.47 11.21-6.35 24.52-7.1 37.11-7.3Z"/></g></svg>