<svg height="300pt" version="1.1" viewBox="0 0 300 300" width="300pt"
  xmlns="http://www.w3.org/2000/svg">
  <g id="#fefefeff">
    <path d="
   M 156.29 36.43 C 160.25 36.05 164.29 34.89 168.26 35.72 C 173.10 40.63 176.42 46.82 179.93 52.70 C 169.76 50.17 159.48 53.67 149.47 55.37 C 148.08 64.67 148.62 74.23 145.95 83.32 C 140.53 76.79 136.61 69.21 131.91 62.18 C 127.64 55.17 122.78 48.51 119.08 41.16 C 131.41 39.05 143.91 38.24 156.29 36.43 Z"
      fill="#fefefe" opacity="1.00" />
    <path d="
   M 116.24 42.66 C 121.55 49.24 125.70 56.62 130.41 63.62 C 134.35 70.22 139.49 76.15 142.23 83.42 C 133.55 80.09 125.93 74.66 117.83 70.20 C 110.57 77.02 106.50 86.41 99.28 93.28 C 97.26 89.72 94.92 86.27 93.68 82.34 C 92.93 80.20 94.29 78.15 95.22 76.32 C 98.03 71.50 101.13 66.85 104.08 62.11 C 108.28 55.72 111.80 48.90 116.24 42.66 Z"
      fill="#fefefe" opacity="1.00" />
    <path d="
   M 167.68 56.59 C 180.95 54.78 194.02 51.64 207.35 50.16 C 206.21 56.91 204.14 63.44 202.10 69.95 C 201.42 71.84 200.82 73.86 199.41 75.35 C 196.67 76.72 193.58 77.10 190.61 77.72 C 176.23 80.36 162.02 83.80 147.71 86.80 C 149.36 81.39 151.67 76.24 154.11 71.15 C 156.10 67.09 157.23 62.56 159.94 58.89 C 162.14 57.23 165.07 57.12 167.68 56.59 Z"
      fill="#fefefe" opacity="1.00" />
    <path d="
   M 117.23 72.08 C 121.88 74.15 126.34 76.62 130.65 79.33 C 135.49 82.03 140.39 84.66 144.95 87.83 C 134.63 101.01 124.76 114.52 114.62 127.84 C 105.56 123.12 96.58 118.14 88.26 112.20 C 97.33 98.41 107.92 85.70 117.23 72.08 Z"
      fill="#fefefe" opacity="1.00" />
    <path d="
   M 159.00 86.51 C 171.27 83.71 183.59 80.97 196.04 79.10 C 191.83 86.64 185.97 93.04 181.03 100.08 C 178.64 103.30 176.58 106.80 173.70 109.62 C 171.09 108.60 170.17 105.51 168.65 103.37 C 165.42 97.76 161.71 92.42 159.00 86.51 Z"
      fill="#fefefe" opacity="1.00" />
    <path d="
   M 156.20 118.31 C 161.11 116.64 166.05 115.06 171.13 113.96 C 170.33 120.94 169.49 128.14 166.56 134.59 C 162.34 137.64 156.94 138.31 152.11 140.04 C 138.96 143.76 126.29 149.11 112.93 152.07 C 113.00 144.89 114.31 137.84 115.84 130.85 C 129.14 126.21 142.73 122.43 156.20 118.31 Z"
      fill="#fefefe" opacity="1.00" />
  </g>
  <g id="#d8d8d8ff">
    <path d="
   M 133.18 37.45 C 145.02 36.03 156.84 34.47 168.70 33.27 C 173.30 38.48 176.51 44.70 180.75 50.16 C 182.46 52.89 185.95 52.11 188.62 51.79 C 195.43 50.59 202.20 49.10 209.08 48.28 C 208.30 56.78 204.67 64.59 202.91 72.87 C 205.65 71.16 208.42 69.50 211.25 67.94 C 209.17 72.12 206.58 76.02 203.65 79.64 C 198.32 86.31 194.26 94.09 187.61 99.62 C 183.26 103.59 178.08 106.81 174.71 111.72 C 170.61 119.21 172.00 128.48 167.96 135.97 C 163.65 138.94 158.24 139.59 153.38 141.31 C 139.42 145.92 125.30 150.03 111.43 154.90 C 111.44 152.84 110.24 150.92 110.85 148.84 C 111.97 142.61 113.21 136.39 114.05 130.10 C 106.53 124.66 98.23 120.46 90.34 115.62 C 88.91 114.61 86.49 113.46 87.44 111.30 C 89.68 105.39 95.36 101.61 97.82 95.83 C 97.65 90.06 92.58 85.82 91.83 80.21 C 93.20 75.89 96.33 72.42 98.56 68.52 C 103.11 60.78 108.12 53.30 112.55 45.49 C 114.06 43.16 115.48 40.29 118.33 39.43 C 123.16 38.06 128.23 38.09 133.18 37.45 M 156.29 36.43 C 143.91 38.24 131.41 39.05 119.08 41.16 C 122.78 48.51 127.64 55.17 131.91 62.18 C 136.61 69.21 140.53 76.79 145.95 83.32 C 148.62 74.23 148.08 64.67 149.47 55.37 C 159.48 53.67 169.76 50.17 179.93 52.70 C 176.42 46.82 173.10 40.63 168.26 35.72 C 164.29 34.89 160.25 36.05 156.29 36.43 M 116.24 42.66 C 111.80 48.90 108.28 55.72 104.08 62.11 C 101.13 66.85 98.03 71.50 95.22 76.32 C 94.29 78.15 92.93 80.20 93.68 82.34 C 94.92 86.27 97.26 89.72 99.28 93.28 C 106.50 86.41 110.57 77.02 117.83 70.20 C 125.93 74.66 133.55 80.09 142.23 83.42 C 139.49 76.15 134.35 70.22 130.41 63.62 C 125.70 56.62 121.55 49.24 116.24 42.66 M 167.68 56.59 C 165.07 57.12 162.14 57.23 159.94 58.89 C 157.23 62.56 156.10 67.09 154.11 71.15 C 151.67 76.24 149.36 81.39 147.71 86.80 C 162.02 83.80 176.23 80.36 190.61 77.72 C 193.58 77.10 196.67 76.72 199.41 75.35 C 200.82 73.86 201.42 71.84 202.10 69.95 C 204.14 63.44 206.21 56.91 207.35 50.16 C 194.02 51.64 180.95 54.78 167.68 56.59 M 117.23 72.08 C 107.92 85.70 97.33 98.41 88.26 112.20 C 96.58 118.14 105.56 123.12 114.62 127.84 C 124.76 114.52 134.63 101.01 144.95 87.83 C 140.39 84.66 135.49 82.03 130.65 79.33 C 126.34 76.62 121.88 74.15 117.23 72.08 M 159.00 86.51 C 161.71 92.42 165.42 97.76 168.65 103.37 C 170.17 105.51 171.09 108.60 173.70 109.62 C 176.58 106.80 178.64 103.30 181.03 100.08 C 185.97 93.04 191.83 86.64 196.04 79.10 C 183.59 80.97 171.27 83.71 159.00 86.51 M 156.20 118.31 C 142.73 122.43 129.14 126.21 115.84 130.85 C 114.31 137.84 113.00 144.89 112.93 152.07 C 126.29 149.11 138.96 143.76 152.11 140.04 C 156.94 138.31 162.34 137.64 166.56 134.59 C 169.49 128.14 170.33 120.94 171.13 113.96 C 166.05 115.06 161.11 116.64 156.20 118.31 Z"
      fill="#d8d8d8" opacity="1.00" />
    <path d="
   M 147.15 187.72 C 159.30 187.82 171.94 188.55 183.06 193.94 C 186.07 195.47 189.71 197.98 189.42 201.80 C 188.61 204.82 185.72 206.66 183.15 208.09 C 177.29 210.96 170.82 212.30 164.42 213.30 C 148.84 215.24 132.71 215.01 117.60 210.40 C 113.48 208.95 108.83 207.37 106.39 203.49 C 104.63 200.15 107.01 196.53 110.04 195.02 C 121.25 188.67 134.56 187.92 147.15 187.72 Z"
      fill="#d8d8d8" opacity="1.00" />
  </g>
</svg>
