<svg xmlns:xlink="http://www.w3.org/1999/xlink" height="200" viewBox="0 0 200 200" width="200"
  xmlns="http://www.w3.org/2000/svg">
  <defs>
    <linearGradient id="linear-gradient" x1="0.5" x2="0.5" y2="1">
      <stop offset="0.03" stop-color="#92c1fc" stop-opacity="0.4" />
      <stop offset="0.25" stop-color="#92c1fc" stop-opacity="0.2" />
      <stop offset="0.8" stop-color="#187fc4" stop-opacity="0" />
    </linearGradient>
    <linearGradient id="linear-gradient-2" x1="-13.997" x2="-13.997" y1="352.458" y2="351.458"
      xlink:href="#linear-gradient" />
    <linearGradient id="linear-gradient-3" x1="-21.018" x2="-21.018" y1="526.665" y2="525.665"
      xlink:href="#linear-gradient" />
    <linearGradient id="linear-gradient-4" x1="-6.326" x2="-6.326" y1="64.404" y2="63.404">
      <stop offset="0" stop-color="#c6d6f8" />
      <stop offset="1" stop-color="#a3bffe" />
    </linearGradient>
    <linearGradient id="linear-gradient-5" x1="-7.891" x2="-7.891" y1="63.917" y2="62.917">
      <stop offset="0" stop-color="#dfe7f8" />
      <stop offset="1" stop-color="#9ab7f6" />
    </linearGradient>
    <linearGradient id="linear-gradient-6" x2="1" y1="0.5" y2="0.5">
      <stop offset="0" stop-color="#eef2fe" />
      <stop offset="1" stop-color="#99b7f1" />
    </linearGradient>
    <linearGradient id="linear-gradient-7" x2="1" y1="0.5" y2="0.5">
      <stop offset="0" stop-color="#63a6f9" />
      <stop offset="1" stop-color="#92c1fc" />
    </linearGradient>
    <linearGradient id="linear-gradient-8" x1="0.5" x2="0.5" y2="1">
      <stop offset="0" stop-color="#b9cef8" />
      <stop offset="1" stop-color="#4788f2" />
    </linearGradient>
    <linearGradient id="linear-gradient-10" x1="-6.85" x2="-5.85" y1="141.543" y2="141.543">
      <stop offset="0" stop-color="#cedbf8" />
      <stop offset="1" stop-color="#92b2f8" />
    </linearGradient>
    <linearGradient id="linear-gradient-11" x1="-6.402" x2="-5.402" y1="143.942" y2="143.942"
      xlink:href="#linear-gradient-10" />
    <linearGradient id="linear-gradient-12" x1="-288.234" x2="-288.234" y1="5976.504" y2="6044.318">
      <stop offset="0" stop-color="#f3f6f9" />
      <stop offset="1" stop-color="#d0dae8" />
    </linearGradient>
    <linearGradient id="linear-gradient-13" x1="-11.071" x2="-11.071" y1="91.881" y2="92.913">
      <stop offset="0" stop-color="#f3f6f9" />
      <stop offset="1" stop-color="#77c0fe" />
    </linearGradient>
    <linearGradient id="linear-gradient-14" x1="-397.139" x2="-397.139" y1="4498.256" y2="4549.86"
      xlink:href="#linear-gradient-12" />
    <linearGradient id="linear-gradient-15" x1="-13.971" x2="-12.971" y1="375.012" y2="375.012">
      <stop offset="0" stop-color="#f3f6f9" />
      <stop offset="1" stop-color="#6abaff" />
    </linearGradient>
    <linearGradient id="linear-gradient-16" x1="-27.599" x2="-27.599" y1="493.297" y2="494.297">
      <stop offset="0" stop-color="#d5e0ee" />
      <stop offset="1" stop-color="#f5f9fa" />
    </linearGradient>
    <linearGradient id="linear-gradient-17" x1="-0.001" x2="0.999" y1="0.499" y2="0.499">
      <stop offset="0" stop-color="#ff7f53" />
      <stop offset="0.994" stop-color="#ffb365" />
    </linearGradient>
  </defs>
  <g id="暂无内容02" transform="translate(-28 -383)">
    <rect fill="#828282" height="200" id="矩形_4409" opacity="0" transform="translate(28 383)"
      width="200" />
    <g id="组_4806" transform="translate(-57.538 366.609)">
      <path
        d="M91.076,82s19.263-31.917,38.338-14.731c2.455,2.455,8.309-3.21,13.031,0,1.511.567,10.387-9.254,19.263,4.91S157.931,82,157.931,82Z"
        fill="url(#linear-gradient)" id="路径_9305" />
      <path
        d="M243.423,49.427c1-1.679,3.228-2.949,7.984-2.046,0,0,7.577-13.331,19.456-1.212,0,0,7.078-1.657,8.9,3.612a4.587,4.587,0,0,1-2.774,5.747c-6.094,2.309-20.066,6.327-31.644.232A4.557,4.557,0,0,1,243.423,49.427Z"
        fill="url(#linear-gradient-2)" id="路径_9306" />
      <path
        d="M182.29,25.624c.677-1.132,2.175-1.987,5.379-1.379,0,0,5.1-8.981,13.108-.817,0,0,4.768-1.116,5.993,2.434a3.089,3.089,0,0,1-1.868,3.871c-4.106,1.556-13.519,4.263-21.319.157A3.07,3.07,0,0,1,182.29,25.624Z"
        fill="url(#linear-gradient-3)" id="路径_9307" />
      <path d="M182.173,183.039l65.992,7.266,12.99-86.787L182.173,94Z"
        fill="url(#linear-gradient-4)" id="路径_9308" />
      <path d="M182.173,184.44l-51.262,6.6-12.99-86.787L182.173,94Z" fill="url(#linear-gradient-5)"
        id="路径_9309" />
      <g id="组_4799">
        <path
          d="M102.492,141.216S91.272,174.6,121.018,193.33l11.083-4.584S102.928,148.385,102.492,141.216Z"
          fill="url(#linear-gradient-6)" id="路径_9310" />
        <path
          d="M132.1,188.746s-1.613-15.343-15.713-29.952c0,0-11.521-10.568-13.9-17.578a41.04,41.04,0,0,0,12.341,23.038s-1.8.222-8.22-6.807c0,0,3.72,19.15,19.812,31.987Z"
          fill="url(#linear-gradient-7)" id="路径_9311" />
      </g>
      <path d="M117.921,193.3l73.8,19.478V123.748l-73.8-19.478Z" fill="url(#linear-gradient-8)"
        id="路径_9312" />
      <path d="M261.155,192.553l-69.433,20.229V123l69.433-19.483Z" fill="url(#linear-gradient-8)"
        id="路径_9313" />
      <path d="M270.434,124.7,206.372,147.05,191.722,123l69.433-19.483Z"
        fill="url(#linear-gradient-10)" id="路径_9314" />
      <path d="M105.132,126.944l75.661,20.106,8.554-23.93-71.425-18.869Z"
        fill="url(#linear-gradient-11)" id="路径_9315" />
      <g id="发送">
        <g id="组_4804">
          <g id="组_4803">
            <g id="组_4800">
              <path
                d="M152.981,46.207c-.44-.188-.677-.282-.681-.282a.375.375,0,1,1,.271-.7s.248.1.708.293a.377.377,0,0,1-.151.723A.293.293,0,0,1,152.981,46.207Z"
                fill="url(#linear-gradient-12)" id="路径_9316" />
            </g>
            <g id="组_4801">
              <path
                d="M178.931,113.871a.381.381,0,0,1-.219-.486A8.2,8.2,0,0,0,179.1,112a.373.373,0,0,1,.44-.3.377.377,0,0,1,.3.44,9.762,9.762,0,0,1-.426,1.51.38.38,0,0,1-.354.245A.326.326,0,0,1,178.931,113.871Zm-5.3-3.238a.377.377,0,0,1,.369-.384c.5-.012.99-.042,1.472-.1a.377.377,0,1,1,.079.75c-.5.052-1.016.086-1.532.1h-.008A.382.382,0,0,1,173.629,110.633Zm-1.141.346c-.5-.026-1.016-.075-1.528-.139a.378.378,0,0,1,.094-.75c.493.064.986.11,1.472.136a.377.377,0,0,1-.023.753Zm7.128-.026a.38.38,0,0,1-.365-.388c0-.079,0-.162,0-.245a9.222,9.222,0,0,0-.075-1.2.377.377,0,1,1,.749-.094.031.031,0,0,1,0,.019c.407-.155.81-.32,1.2-.494a.377.377,0,1,1,.305.689c-.459.2-.933.4-1.415.577l-.019.007c.007.166.011.331.011.5,0,.09,0,.181,0,.267a.377.377,0,0,1-.376.366Zm-2.982-.569a.376.376,0,0,1,.293-.444c.4-.079.787-.173,1.164-.283l.263-.079a.375.375,0,0,1,.215.719l-.275.08c-.4.112-.806.21-1.22.293a.477.477,0,0,1-.075.008A.368.368,0,0,1,176.634,110.384Zm-7.2.207c-.5-.1-1-.214-1.491-.346a.376.376,0,0,1-.268-.463.381.381,0,0,1,.463-.268c.479.128.961.241,1.442.335a.379.379,0,0,1-.071.75A.519.519,0,0,1,169.439,110.591Zm-2.952-.791c-.482-.165-.964-.346-1.431-.542a.377.377,0,0,1,.29-.7c.452.188.919.365,1.385.523a.377.377,0,0,1-.124.734A.4.4,0,0,1,166.487,109.8Zm-2.824-1.182c-.463-.233-.915-.482-1.344-.742a.375.375,0,1,1,.388-.643c.41.248.843.489,1.291.715a.377.377,0,0,1,.166.505.371.371,0,0,1-.335.207A.365.365,0,0,1,163.663,108.618Zm18.637-.211a.374.374,0,0,1,.155-.508c.433-.23.866-.482,1.276-.742a.377.377,0,1,1,.4.637c-.429.271-.874.531-1.325.772a.378.378,0,0,1-.177.045A.374.374,0,0,1,182.3,108.407Zm-3.4-.711a12.694,12.694,0,0,0-.466-1.382.375.375,0,1,1,.7-.282,12.631,12.631,0,0,1,.5,1.468.38.38,0,0,1-.267.463.409.409,0,0,1-.1.011A.375.375,0,0,1,178.9,107.7Zm-17.869-.682a13.341,13.341,0,0,1-1.193-.99.375.375,0,1,1,.515-.546,12.548,12.548,0,0,0,1.126.934.378.378,0,0,1,.079.527.362.362,0,0,1-.3.154A.358.358,0,0,1,161.031,107.014Zm23.841-.165a.379.379,0,0,1,.079-.528c.395-.289.783-.6,1.152-.922a.376.376,0,1,1,.493.569c-.384.335-.787.655-1.2.96a.349.349,0,0,1-.222.075A.377.377,0,0,1,184.872,106.849Zm-7.063-1.864a12.563,12.563,0,0,0-.761-1.246.376.376,0,1,1,.617-.43,13.108,13.108,0,0,1,.81,1.322.374.374,0,0,1-.154.508.378.378,0,0,1-.512-.154Zm9.378-.064a.372.372,0,0,1,0-.531c.342-.35.677-.715,1-1.088a.377.377,0,1,1,.573.489c-.332.388-.682.768-1.039,1.13a.377.377,0,0,1-.268.113A.353.353,0,0,1,187.187,104.921Zm-28.4-.049c-.053-.068-.1-.136-.151-.2a12.247,12.247,0,0,1-.7-1.1.376.376,0,1,1,.655-.369,11.809,11.809,0,0,0,.659,1.036c.045.064.09.124.135.184a.376.376,0,0,1-.071.527.41.41,0,0,1-.23.076A.364.364,0,0,1,158.791,104.872Zm30.384-2.2a.375.375,0,0,1-.082-.527c.29-.4.568-.806.828-1.224a.377.377,0,0,1,.64.4c-.271.433-.561.859-.858,1.269a.378.378,0,0,1-.305.155A.382.382,0,0,1,189.175,102.673Zm-13.023-.1c-.313-.361-.652-.723-1.009-1.069a.376.376,0,1,1,.523-.539c.377.366.731.742,1.058,1.122a.377.377,0,0,1-.286.622A.358.358,0,0,1,176.152,102.575Zm-18.871-.44a6.589,6.589,0,0,1-.358-1.552.377.377,0,0,1,.75-.071,5.833,5.833,0,0,0,.32,1.374.38.38,0,0,1-.23.482.362.362,0,0,1-.124.023A.376.376,0,0,1,157.281,102.135Zm16.762-1.612c-.372-.309-.768-.61-1.174-.9a.375.375,0,1,1,.433-.613c.421.3.832.613,1.22.933a.38.38,0,0,1,.048.531.369.369,0,0,1-.289.136A.359.359,0,0,1,174.043,100.523Zm16.774-.373a.375.375,0,0,1-.158-.508c.23-.433.444-.881.644-1.333a.377.377,0,0,1,.689.305c-.207.463-.429.93-.667,1.378a.376.376,0,0,1-.335.2A.411.411,0,0,1,190.817,100.15ZM157.3,99.42a.377.377,0,0,1-.279-.456,4.227,4.227,0,0,1,.682-1.491.378.378,0,1,1,.613.441,3.52,3.52,0,0,0-.561,1.227.375.375,0,0,1-.365.29A.392.392,0,0,1,157.3,99.42Zm14.326-.61c-.418-.256-.851-.5-1.288-.73a.377.377,0,1,1,.351-.667c.451.237.9.493,1.333.757a.374.374,0,0,1,.124.516.368.368,0,0,1-.32.181A.39.39,0,0,1,171.626,98.81Zm-2.617-1.374c-.455-.2-.918-.388-1.374-.554a.376.376,0,1,1,.256-.708c.471.17.949.366,1.42.573a.375.375,0,0,1-.151.719A.41.41,0,0,1,169.009,97.436Zm23.069-.023a.377.377,0,0,1-.226-.482c.166-.459.317-.934.452-1.408a.378.378,0,0,1,.727.207c-.139.49-.3.979-.471,1.457a.374.374,0,0,1-.354.249A.308.308,0,0,1,192.078,97.413Zm-33.3-.55a.374.374,0,0,1,.09-.523,6.613,6.613,0,0,1,1.4-.745.377.377,0,1,1,.279.7,5.873,5.873,0,0,0-1.246.663.394.394,0,0,1-.219.067A.368.368,0,0,1,158.78,96.863Zm7.447-.436c-.49-.136-.971-.249-1.435-.335a.378.378,0,1,1,.14-.742c.482.09.986.207,1.5.35a.376.376,0,0,1-.1.738A.506.506,0,0,1,166.227,96.427Zm-4.74-.821a.375.375,0,0,1,.327-.418,7.492,7.492,0,0,1,.945-.056h0c.2,0,.41,0,.625.018a.377.377,0,1,1-.045.753c-.2-.011-.4-.026-.58-.018a7.026,7.026,0,0,0-.855.048.172.172,0,0,1-.045,0A.383.383,0,0,1,161.487,95.606Zm31.465-1.073a.381.381,0,0,1-.29-.448c.1-.482.188-.972.256-1.457a.376.376,0,1,1,.745.105c-.067.5-.158,1.009-.263,1.51a.378.378,0,0,1-.369.3A.3.3,0,0,1,192.952,94.533Zm.467-2.975a.378.378,0,0,1-.35-.4c.03-.441.045-.885.045-1.318V89.68a.375.375,0,0,1,.373-.381.371.371,0,0,1,.38.373v.166c0,.452-.015.911-.045,1.37a.378.378,0,0,1-.377.35Zm-.377-3.354c-.041-.448-.1-.893-.169-1.288l-.038-.105a.375.375,0,1,1,.708-.249l.049.136.015.06c.079.444.143.911.185,1.382a.38.38,0,0,1-.343.41h-.034A.377.377,0,0,1,193.042,88.2Zm-.719-2.8q-.266-.705-.55-1.393a.376.376,0,0,1,.7-.282c.192.463.376.933.557,1.408a.375.375,0,0,1-.218.486.365.365,0,0,1-.136.026A.377.377,0,0,1,192.323,85.406Zm-1.137-2.763q-.3-.69-.621-1.363a.376.376,0,1,1,.681-.32c.215.455.426.914.629,1.378a.375.375,0,0,1-.192.5.451.451,0,0,1-.151.03A.38.38,0,0,1,191.186,82.643Zm-1.273-2.708q-.337-.672-.689-1.329a.376.376,0,0,1,.663-.354c.237.445.471.893.7,1.345a.376.376,0,0,1-.166.5.355.355,0,0,1-.169.042A.378.378,0,0,1,189.913,79.935ZM188.5,77.292c-.244-.433-.5-.866-.753-1.291a.376.376,0,0,1,.644-.388q.39.649.765,1.31a.377.377,0,0,1-.143.512.359.359,0,0,1-.185.049A.37.37,0,0,1,188.5,77.292Zm-1.539-2.568c-.272-.421-.543-.839-.817-1.253a.377.377,0,1,1,.628-.418c.279.418.554.839.825,1.269a.373.373,0,0,1-.117.519.349.349,0,0,1-.2.06A.371.371,0,0,1,186.962,74.724ZM185.3,72.239c-.286-.41-.579-.817-.873-1.216a.377.377,0,0,1,.606-.448c.3.407.6.817.885,1.232a.375.375,0,0,1-.3.591A.4.4,0,0,1,185.3,72.239Zm-1.769-2.417q-.464-.592-.93-1.174a.378.378,0,1,1,.587-.475c.316.392.629.787.938,1.19a.377.377,0,0,1-.3.606A.364.364,0,0,1,183.528,69.822Zm-1.887-2.33c-.323-.384-.651-.761-.979-1.134a.376.376,0,0,1,.565-.5c.332.377.663.757.99,1.145a.376.376,0,0,1-.045.531.361.361,0,0,1-.241.09A.385.385,0,0,1,181.641,67.492Zm-1.973-2.244c-.342-.369-.685-.735-1.027-1.092a.376.376,0,1,1,.542-.52c.346.362.693.731,1.035,1.1a.375.375,0,0,1-.022.531.4.4,0,0,1-.256.1A.359.359,0,0,1,179.668,65.248Zm-2.078-2.162q-.531-.535-1.069-1.05a.375.375,0,0,1,.519-.542q.543.525,1.081,1.062a.374.374,0,0,1,0,.53.383.383,0,0,1-.267.11A.371.371,0,0,1,177.59,63.086Zm-2.169-2.078c-.369-.343-.741-.678-1.11-1.009a.376.376,0,0,1,.5-.561q.565.5,1.122,1.017a.375.375,0,0,1,.023.531.37.37,0,0,1-.275.12A.415.415,0,0,1,175.421,61.008Zm-2.236-1.995c-.384-.328-.768-.648-1.148-.964a.377.377,0,1,1,.478-.584c.388.32.772.644,1.159.975a.377.377,0,0,1-.489.573ZM170.873,57.1c-.4-.317-.791-.622-1.182-.923a.376.376,0,1,1,.455-.6c.4.3.795.613,1.194.93a.38.38,0,0,1,.06.53.371.371,0,0,1-.527.061Zm-2.379-1.826c-.411-.3-.814-.6-1.217-.881a.376.376,0,0,1,.433-.614c.407.29.817.583,1.228.888a.378.378,0,0,1-.226.682A.346.346,0,0,1,168.494,55.278Zm-2.452-1.732c-.421-.287-.835-.565-1.246-.836a.378.378,0,0,1,.418-.629c.414.271.832.553,1.258.843a.377.377,0,0,1,.1.524.385.385,0,0,1-.313.162A.425.425,0,0,1,166.042,53.546Zm-2.5-1.657c-.433-.275-.855-.538-1.273-.794a.376.376,0,0,1,.392-.641c.418.26.847.524,1.284.8a.375.375,0,0,1,.116.52.371.371,0,0,1-.316.173A.377.377,0,0,1,163.539,51.889Zm-2.557-1.566c-.444-.264-.877-.512-1.3-.75a.376.376,0,1,1,.369-.655c.422.241.862.493,1.31.757a.376.376,0,0,1-.192.7A.373.373,0,0,1,160.982,50.323Zm-2.62-1.476c-.464-.249-.9-.482-1.326-.7a.377.377,0,1,1,.347-.67c.425.219.873.456,1.34.708a.381.381,0,0,1,.151.512.377.377,0,0,1-.332.2A.4.4,0,0,1,158.362,48.847ZM155.7,47.469c-.5-.245-.957-.463-1.356-.648a.377.377,0,0,1,.316-.685c.407.188.866.406,1.371.655a.377.377,0,0,1,.173.5.382.382,0,0,1-.339.211A.368.368,0,0,1,155.7,47.469Z"
                fill="url(#linear-gradient-13)" id="路径_9317" />
            </g>
            <g id="组_4802">
              <path
                d="M177.737,115.783a.376.376,0,0,1-.041-.531,4.824,4.824,0,0,0,.391-.564.375.375,0,1,1,.64.391,5.719,5.719,0,0,1-.467.667.379.379,0,0,1-.286.131A.327.327,0,0,1,177.737,115.783Z"
                fill="url(#linear-gradient-14)" id="路径_9318" />
            </g>
          </g>
          <path d="M138.35,47.853,129.423,31,158,35.77Z" fill="url(#linear-gradient-15)"
            id="路径_9319" />
        </g>
        <path d="M150.534,40.36,148.5,47.853l-1.393-5.644-10.765-7.142Z"
          fill="url(#linear-gradient-16)" id="路径_9320" />
        <path d="M147.19,42.145l1.31,5.708L143.316,44.8Z" fill="#91b1e8" id="路径_9321" />
      </g>
      <g id="组_4809" transform="translate(-1.128 -272.652)">
        <path
          d="M211.14,363.37s-3.289,21.043-1.425,28.995c.467.935,2.338.469,2.338,1.4,0,.468-3.742-.47-5.613.932-.468.467-4.444,1.165-3.975-.237s2.807-1.869,4.21-1.868-4.661-20.581.959-30.4Z"
          fill="#ffe6cc" id="路径_9328" />
        <path
          d="M250.435,351.708l3.575-6.692a.375.375,0,0,1,.5-.158l3.993,2a.374.374,0,0,1,.156.522l-4.014,6.668Z"
          fill="#4084f2" id="路径_9329" />
        <path
          d="M239.672,359.182s1.164,6.783,3.27,4.68c2.387-2.383,5.617-6.076,6.553-6.543,0,0-1.166-3.976,1.174-5.845.935,0,1.869,2.34,6.08-.931a4.936,4.936,0,0,1,0,2.806c-.469,1.4-3.277,3.739-3.745,4.207s-8.427,11.685-9.363,12.152-2.339,1.4-4.208-.471-2.571-2.574-3.034-8.654Z"
          fill="#ffe6cc" id="路径_9330" />
        <path
          d="M218.1,433.059s-2.806.466-2.807,1.4.458,13.1,5.134,13.567c1.871,0,1.406-3.741.942-7.95a16.3,16.3,0,0,1,.472-6.547C221.844,433.062,218.1,433.059,218.1,433.059Z"
          fill="#0f244d" id="路径_9331" />
        <path
          d="M235.416,420.445a2.942,2.942,0,0,1-3.275,1.4c-2.338-.47,3.263,14.033,6.536,14.971,0,0,1.4.936.938-2.806s-1.864-8.887-1.863-9.823.468-.935.936-1.4S235.416,420.445,235.416,420.445Z"
          fill="#0f244d" id="路径_9332" />
        <path
          d="M216.265,389.1s9.813,11.7,8.874,16.376c0,0-8.2,20.337-7.738,27.353,0,.935,4.675,1.874,5.143,1.875s13.117-28.987,13.585-29.454,1.408-5.611-3.73-14.969c0,0,.936-.934,2.338.47s8.415,5.151,6.072,10.761-5.158,17.768-5.627,18.7,3.739,3.744,3.739,3.744,8.9-14.958,12.177-21.971-.46-10.289-2.8-13.1-9.347-9.361-10.75-9.362S216.265,389.1,216.265,389.1Z"
          fill="#5f91ed" id="路径_9333" />
        <path
          d="M213.478,364.774,206,362.9c-1.87-.469,7.5-18.7,18.253-16.823,10.055.242,11.925,1.179,16.593,12.874,0,0-4.212,3.739-4.681,4.674s-1.411,10.287,4.2,17.307c.934,1.4-9.819-2.814-23.392,9.8C212.754,393.536,211.838,368.748,213.478,364.774Z"
          fill="url(#linear-gradient-17)" id="路径_9334" />
        <rect fill="#eaccb0" height="7.791" id="矩形_4426" rx="2.731"
          transform="translate(224.441 341.093)" width="5.461" />
        <path d="M234.327,333.2s.512,12.244-6,11.718-7.548-9.645-7.548-9.645l3.39-4.165Z"
          fill="#f9e5d4" id="路径_9335" />
        <path
          d="M225.425,333.472s2.761,2.766,9.442.468c0,0-.338-9.558-8.63-8.873s-7.836,8.285-5.077,14.735C221.62,340.493,223.238,333.125,225.425,333.472Z"
          fill="#0f244d" id="路径_9336" />
      </g>
    </g>
  </g>
</svg>
