<svg xmlns="http://www.w3.org/2000/svg" xmlns:xlink="http://www.w3.org/1999/xlink" width="200" height="200"><defs><linearGradient id="a" x1=".5" x2=".5" y2="1"><stop offset=".03" stop-color="#92c1fc" stop-opacity=".4"/><stop offset=".25" stop-color="#92c1fc" stop-opacity=".2"/><stop offset=".8" stop-color="#187fc4" stop-opacity="0"/></linearGradient><linearGradient xlink:href="#a" id="d" x1="-13.997" x2="-13.997" y1="352.458" y2="351.458"/><linearGradient xlink:href="#a" id="e" x1="-21.018" x2="-21.018" y1="526.665" y2="525.665"/><linearGradient id="f" x1="-6.326" x2="-6.326" y1="64.404" y2="63.404"><stop offset="0" stop-color="#c6d6f8"/><stop offset="1" stop-color="#a3bffe"/></linearGradient><linearGradient id="g" x1="-7.891" x2="-7.891" y1="63.917" y2="62.917"><stop offset="0" stop-color="#dfe7f8"/><stop offset="1" stop-color="#9ab7f6"/></linearGradient><linearGradient id="h" x2="1" y1=".5" y2=".5"><stop offset="0" stop-color="#eef2fe"/><stop offset="1" stop-color="#99b7f1"/></linearGradient><linearGradient id="i" x2="1" y1=".5" y2=".5"><stop offset="0" stop-color="#63a6f9"/><stop offset="1" stop-color="#92c1fc"/></linearGradient><linearGradient id="j" x1=".5" x2=".5" y2="1"><stop offset="0" stop-color="#b9cef8"/><stop offset="1" stop-color="#4788f2"/></linearGradient><linearGradient id="b" x1="-6.85" x2="-5.85" y1="141.543" y2="141.543"><stop offset="0" stop-color="#cedbf8"/><stop offset="1" stop-color="#92b2f8"/></linearGradient><linearGradient xlink:href="#b" id="k" x1="-6.402" x2="-5.402" y1="143.942" y2="143.942"/><linearGradient id="c" x1="-288.234" x2="-288.234" y1="5976.504" y2="6044.318"><stop offset="0" stop-color="#f3f6f9"/><stop offset="1" stop-color="#d0dae8"/></linearGradient><linearGradient id="l" x1="-11.071" x2="-11.071" y1="91.881" y2="92.913"><stop offset="0" stop-color="#f3f6f9"/><stop offset="1" stop-color="#77c0fe"/></linearGradient><linearGradient xlink:href="#c" id="m" x1="-397.139" x2="-397.139" y1="4498.256" y2="4549.86"/><linearGradient id="n" x1="-13.971" x2="-12.971" y1="375.012" y2="375.012"><stop offset="0" stop-color="#f3f6f9"/><stop offset="1" stop-color="#6abaff"/></linearGradient><linearGradient id="o" x1="-27.599" x2="-27.599" y1="493.297" y2="494.297"><stop offset="0" stop-color="#d5e0ee"/><stop offset="1" stop-color="#f5f9fa"/></linearGradient><linearGradient id="p" x1="-.001" x2=".999" y1=".499" y2=".499"><stop offset="0" stop-color="#ff7f53"/><stop offset=".994" stop-color="#ffb365"/></linearGradient></defs><path fill="url(#a)" d="M91.076 82s19.263-31.917 38.338-14.731c2.455 2.455 8.309-3.21 13.031 0 1.511.567 10.387-9.254 19.263 4.91S157.931 82 157.931 82Z" transform="translate(-85.538 -16.391)"/><path fill="url(#d)" d="M243.423 49.427c1-1.679 3.228-2.949 7.984-2.046 0 0 7.577-13.331 19.456-1.212 0 0 7.078-1.657 8.9 3.612a4.587 4.587 0 0 1-2.774 5.747c-6.094 2.309-20.066 6.327-31.644.232a4.557 4.557 0 0 1-1.922-6.333Z" transform="translate(-85.538 -16.391)"/><path fill="url(#e)" d="M182.29 25.624c.677-1.132 2.175-1.987 5.379-1.379 0 0 5.1-8.981 13.108-.817 0 0 4.768-1.116 5.993 2.434a3.089 3.089 0 0 1-1.868 3.871c-4.106 1.556-13.519 4.263-21.319.157a3.07 3.07 0 0 1-1.293-4.266Z" transform="translate(-85.538 -16.391)"/><path fill="url(#f)" d="m182.173 183.039 65.992 7.266 12.99-86.787L182.173 94Z" transform="translate(-85.538 -16.391)"/><path fill="url(#g)" d="m182.173 184.44-51.262 6.6-12.99-86.787L182.173 94Z" transform="translate(-85.538 -16.391)"/><path fill="url(#h)" d="M102.492 141.216s-11.22 33.384 18.526 52.114l11.083-4.584s-29.173-40.361-29.609-47.53Z" transform="translate(-85.538 -16.391)"/><path fill="url(#i)" d="M132.1 188.746s-1.613-15.343-15.713-29.952c0 0-11.521-10.568-13.9-17.578a41.04 41.04 0 0 0 12.341 23.038s-1.8.222-8.22-6.807c0 0 3.72 19.15 19.812 31.987Z" transform="translate(-85.538 -16.391)"/><path fill="url(#j)" d="m117.921 193.3 73.8 19.478v-89.03l-73.8-19.478ZM261.155 192.553l-69.433 20.229V123l69.433-19.483Z" transform="translate(-85.538 -16.391)"/><path fill="url(#b)" d="m270.434 124.7-64.062 22.35-14.65-24.05 69.433-19.483Z" transform="translate(-85.538 -16.391)"/><path fill="url(#k)" d="m105.132 126.944 75.661 20.106 8.554-23.93-71.425-18.869Z" transform="translate(-85.538 -16.391)"/><path fill="url(#c)" d="M152.981 46.207c-.44-.188-.677-.282-.681-.282a.375.375 0 1 1 .271-.7s.248.1.708.293a.377.377 0 0 1-.151.723.293.293 0 0 1-.147-.034Z" transform="translate(-85.538 -16.391)"/><path fill="url(#l)" d="M178.931 113.871a.381.381 0 0 1-.219-.486A8.2 8.2 0 0 0 179.1 112a.373.373 0 0 1 .44-.3.377.377 0 0 1 .3.44 9.762 9.762 0 0 1-.426 1.51.38.38 0 0 1-.354.245.326.326 0 0 1-.129-.024Zm-5.3-3.238a.377.377 0 0 1 .369-.384c.5-.012.99-.042 1.472-.1a.377.377 0 1 1 .079.75c-.5.052-1.016.086-1.532.1h-.008a.382.382 0 0 1-.382-.366Zm-1.141.346c-.5-.026-1.016-.075-1.528-.139a.378.378 0 0 1 .094-.75c.493.064.986.11 1.472.136a.377.377 0 0 1-.023.753Zm7.128-.026a.38.38 0 0 1-.365-.388v-.245a9.222 9.222 0 0 0-.075-1.2.377.377 0 1 1 .749-.094.031.031 0 0 1 0 .019c.407-.155.81-.32 1.2-.494a.377.377 0 1 1 .305.689c-.459.2-.933.4-1.415.577l-.019.007c.007.166.011.331.011.5v.267a.377.377 0 0 1-.376.366Zm-2.982-.569a.376.376 0 0 1 .293-.444c.4-.079.787-.173 1.164-.283l.263-.079a.375.375 0 0 1 .215.719l-.275.08c-.4.112-.806.21-1.22.293a.477.477 0 0 1-.075.008.368.368 0 0 1-.367-.294Zm-7.2.207c-.5-.1-1-.214-1.491-.346a.376.376 0 0 1-.268-.463.381.381 0 0 1 .463-.268c.479.128.961.241 1.442.335a.379.379 0 0 1-.071.75.519.519 0 0 1-.072-.008Zm-2.952-.791a22.76 22.76 0 0 1-1.431-.542.377.377 0 0 1 .29-.7c.452.188.919.365 1.385.523a.377.377 0 0 1-.124.734.4.4 0 0 1-.117-.015Zm-2.824-1.182a19.613 19.613 0 0 1-1.344-.742.375.375 0 1 1 .388-.643c.41.248.843.489 1.291.715a.377.377 0 0 1 .166.505.371.371 0 0 1-.335.207.365.365 0 0 1-.163-.042Zm18.637-.211a.374.374 0 0 1 .155-.508c.433-.23.866-.482 1.276-.742a.377.377 0 1 1 .4.637c-.429.271-.874.531-1.325.772a.378.378 0 0 1-.177.045.374.374 0 0 1-.326-.204Zm-3.4-.711a12.694 12.694 0 0 0-.466-1.382.375.375 0 1 1 .7-.282 12.631 12.631 0 0 1 .5 1.468.38.38 0 0 1-.267.463.409.409 0 0 1-.1.011.375.375 0 0 1-.364-.274Zm-17.869-.682a13.341 13.341 0 0 1-1.193-.99.375.375 0 1 1 .515-.546 12.548 12.548 0 0 0 1.126.934.378.378 0 0 1 .079.527.362.362 0 0 1-.3.154.358.358 0 0 1-.224-.079Zm23.841-.165a.379.379 0 0 1 .079-.528c.395-.289.783-.6 1.152-.922a.376.376 0 1 1 .493.569c-.384.335-.787.655-1.2.96a.349.349 0 0 1-.222.075.377.377 0 0 1-.299-.154Zm-7.063-1.864a12.563 12.563 0 0 0-.761-1.246.376.376 0 1 1 .617-.43 13.108 13.108 0 0 1 .81 1.322.374.374 0 0 1-.154.508.378.378 0 0 1-.512-.154Zm9.378-.064a.372.372 0 0 1 0-.531c.342-.35.677-.715 1-1.088a.377.377 0 1 1 .573.489c-.332.388-.682.768-1.039 1.13a.377.377 0 0 1-.268.113.353.353 0 0 1-.263-.113Zm-28.4-.049c-.053-.068-.1-.136-.151-.2a12.247 12.247 0 0 1-.7-1.1.376.376 0 1 1 .655-.369 11.809 11.809 0 0 0 .659 1.036c.045.064.09.124.135.184a.376.376 0 0 1-.071.527.41.41 0 0 1-.23.076.364.364 0 0 1-.29-.154Zm30.384-2.2a.375.375 0 0 1-.082-.527c.29-.4.568-.806.828-1.224a.377.377 0 0 1 .64.4 22.73 22.73 0 0 1-.858 1.269.378.378 0 0 1-.305.155.382.382 0 0 1-.216-.072Zm-13.023-.1a17.037 17.037 0 0 0-1.009-1.069.376.376 0 1 1 .523-.539c.377.366.731.742 1.058 1.122a.377.377 0 0 1-.286.622.358.358 0 0 1-.279-.133Zm-18.871-.44a6.589 6.589 0 0 1-.358-1.552.377.377 0 0 1 .75-.071 5.833 5.833 0 0 0 .32 1.374.38.38 0 0 1-.23.482.362.362 0 0 1-.124.023.376.376 0 0 1-.351-.253Zm16.762-1.612a20.4 20.4 0 0 0-1.174-.9.375.375 0 1 1 .433-.613c.421.3.832.613 1.22.933a.38.38 0 0 1 .048.531.369.369 0 0 1-.289.136.359.359 0 0 1-.231-.084Zm16.774-.373a.375.375 0 0 1-.158-.508c.23-.433.444-.881.644-1.333a.377.377 0 0 1 .689.305c-.207.463-.429.93-.667 1.378a.376.376 0 0 1-.335.2.411.411 0 0 1-.166-.039Zm-33.51-.727a.377.377 0 0 1-.279-.456 4.227 4.227 0 0 1 .682-1.491.378.378 0 1 1 .613.441 3.52 3.52 0 0 0-.561 1.227.375.375 0 0 1-.365.29.392.392 0 0 1-.09-.011Zm14.326-.61c-.418-.256-.851-.5-1.288-.73a.377.377 0 1 1 .351-.667c.451.237.9.493 1.333.757a.374.374 0 0 1 .124.516.368.368 0 0 1-.32.181.39.39 0 0 1-.2-.057Zm-2.617-1.374c-.455-.2-.918-.388-1.374-.554a.376.376 0 1 1 .256-.708c.471.17.949.366 1.42.573a.375.375 0 0 1-.151.719.41.41 0 0 1-.151-.03Zm23.069-.023a.377.377 0 0 1-.226-.482c.166-.459.317-.934.452-1.408a.378.378 0 0 1 .727.207c-.139.49-.3.979-.471 1.457a.374.374 0 0 1-.354.249.308.308 0 0 1-.128-.023Zm-33.3-.55a.374.374 0 0 1 .09-.523 6.613 6.613 0 0 1 1.4-.745.377.377 0 1 1 .279.7 5.873 5.873 0 0 0-1.246.663.394.394 0 0 1-.219.067.368.368 0 0 1-.302-.162Zm7.447-.436c-.49-.136-.971-.249-1.435-.335a.378.378 0 1 1 .14-.742c.482.09.986.207 1.5.35a.376.376 0 0 1-.1.738.506.506 0 0 1-.103-.011Zm-4.74-.821a.375.375 0 0 1 .327-.418 7.492 7.492 0 0 1 .945-.056c.2 0 .41 0 .625.018a.377.377 0 1 1-.045.753c-.2-.011-.4-.026-.58-.018a7.026 7.026 0 0 0-.855.048.172.172 0 0 1-.045 0 .383.383 0 0 1-.37-.327Zm31.465-1.073a.381.381 0 0 1-.29-.448c.1-.482.188-.972.256-1.457a.376.376 0 1 1 .745.105 21.02 21.02 0 0 1-.263 1.51.378.378 0 0 1-.369.3.3.3 0 0 1-.077-.01Zm.467-2.975a.378.378 0 0 1-.35-.4c.03-.441.045-.885.045-1.318v-.16a.375.375 0 0 1 .373-.381.371.371 0 0 1 .38.373v.166c0 .452-.015.911-.045 1.37a.378.378 0 0 1-.377.35Zm-.377-3.354c-.041-.448-.1-.893-.169-1.288l-.038-.105a.375.375 0 1 1 .708-.249l.049.136.015.06c.079.444.143.911.185 1.382a.38.38 0 0 1-.343.41h-.034a.377.377 0 0 1-.371-.35Zm-.719-2.8q-.266-.705-.55-1.393a.376.376 0 0 1 .7-.282c.192.463.376.933.557 1.408a.375.375 0 0 1-.218.486.365.365 0 0 1-.136.026.377.377 0 0 1-.351-.243Zm-1.137-2.763q-.3-.69-.621-1.363a.376.376 0 1 1 .681-.32c.215.455.426.914.629 1.378a.375.375 0 0 1-.192.5.451.451 0 0 1-.151.03.38.38 0 0 1-.344-.223Zm-1.273-2.708q-.337-.672-.689-1.329a.376.376 0 0 1 .663-.354c.237.445.471.893.7 1.345a.376.376 0 0 1-.166.5.355.355 0 0 1-.169.042.378.378 0 0 1-.337-.202Zm-1.411-2.641c-.244-.433-.5-.866-.753-1.291a.376.376 0 0 1 .644-.388q.39.649.765 1.31a.377.377 0 0 1-.143.512.359.359 0 0 1-.185.049.37.37 0 0 1-.328-.192Zm-1.539-2.568a135.64 135.64 0 0 0-.817-1.253.377.377 0 1 1 .628-.418c.279.418.554.839.825 1.269a.373.373 0 0 1-.117.519.349.349 0 0 1-.2.06.371.371 0 0 1-.318-.177Zm-1.661-2.485c-.286-.41-.579-.817-.873-1.216a.377.377 0 0 1 .606-.448c.3.407.6.817.885 1.232a.375.375 0 0 1-.3.591.4.4 0 0 1-.318-.159Zm-1.769-2.417q-.464-.592-.93-1.174a.378.378 0 1 1 .587-.475c.316.392.629.787.938 1.19a.377.377 0 0 1-.3.606.364.364 0 0 1-.298-.147Zm-1.887-2.33a68.181 68.181 0 0 0-.979-1.134.376.376 0 0 1 .565-.5c.332.377.663.757.99 1.145a.376.376 0 0 1-.045.531.361.361 0 0 1-.241.09.385.385 0 0 1-.293-.132Zm-1.973-2.244a91.114 91.114 0 0 0-1.027-1.092.376.376 0 1 1 .542-.52c.346.362.693.731 1.035 1.1a.375.375 0 0 1-.022.531.4.4 0 0 1-.256.1.359.359 0 0 1-.275-.119Zm-2.078-2.162q-.531-.535-1.069-1.05a.375.375 0 0 1 .519-.542q.543.525 1.081 1.062a.374.374 0 0 1 0 .53.383.383 0 0 1-.267.11.371.371 0 0 1-.267-.11Zm-2.169-2.078a84.47 84.47 0 0 0-1.11-1.009.376.376 0 0 1 .5-.561q.565.5 1.122 1.017a.375.375 0 0 1 .023.531.37.37 0 0 1-.275.12.415.415 0 0 1-.263-.098Zm-2.236-1.995c-.384-.328-.768-.648-1.148-.964a.377.377 0 1 1 .478-.584c.388.32.772.644 1.159.975a.377.377 0 0 1-.489.573Zm-2.315-1.913c-.4-.317-.791-.622-1.182-.923a.376.376 0 1 1 .455-.6c.4.3.795.613 1.194.93a.38.38 0 0 1 .06.53.371.371 0 0 1-.527.061Zm-2.379-1.826c-.411-.3-.814-.6-1.217-.881a.376.376 0 0 1 .433-.614c.407.29.817.583 1.228.888a.378.378 0 0 1-.226.682.346.346 0 0 1-.218-.071Zm-2.452-1.732a97.27 97.27 0 0 0-1.246-.836.378.378 0 0 1 .418-.629c.414.271.832.553 1.258.843a.377.377 0 0 1 .1.524.385.385 0 0 1-.313.162.425.425 0 0 1-.217-.06Zm-2.5-1.657a91.683 91.683 0 0 0-1.273-.794.376.376 0 0 1 .392-.641c.418.26.847.524 1.284.8a.375.375 0 0 1 .116.52.371.371 0 0 1-.316.173.377.377 0 0 1-.206-.054Zm-2.557-1.566a62.418 62.418 0 0 0-1.3-.75.376.376 0 1 1 .369-.655c.422.241.862.493 1.31.757a.376.376 0 0 1-.192.7.373.373 0 0 1-.19-.048Zm-2.62-1.476c-.464-.249-.9-.482-1.326-.7a.377.377 0 1 1 .347-.67c.425.219.873.456 1.34.708a.381.381 0 0 1 .151.512.377.377 0 0 1-.332.2.4.4 0 0 1-.183-.046Zm-2.665-1.374c-.5-.245-.957-.463-1.356-.648a.377.377 0 0 1 .316-.685c.407.188.866.406 1.371.655a.377.377 0 0 1 .173.5.382.382 0 0 1-.339.211.368.368 0 0 1-.165-.033Z" transform="translate(-85.538 -16.391)"/><path fill="url(#m)" d="M177.737 115.783a.376.376 0 0 1-.041-.531 4.824 4.824 0 0 0 .391-.564.375.375 0 1 1 .64.391 5.719 5.719 0 0 1-.467.667.379.379 0 0 1-.286.131.327.327 0 0 1-.237-.094Z" transform="translate(-85.538 -16.391)"/><path fill="url(#n)" d="M138.35 47.853 129.423 31 158 35.77Z" transform="translate(-85.538 -16.391)"/><path fill="url(#o)" d="m150.534 40.36-2.034 7.493-1.393-5.644-10.765-7.142Z" transform="translate(-85.538 -16.391)"/><path fill="#91b1e8" d="m61.652 25.754 1.31 5.708-5.184-3.053Z"/><g transform="translate(-86.666 -289.043)"><path fill="#ffe6cc" d="M211.14 363.37s-3.289 21.043-1.425 28.995c.467.935 2.338.469 2.338 1.4 0 .468-3.742-.47-5.613.932-.468.467-4.444 1.165-3.975-.237s2.807-1.869 4.21-1.868-4.661-20.581.959-30.4Z"/><path fill="#4084f2" d="m250.435 351.708 3.575-6.692a.375.375 0 0 1 .5-.158l3.993 2a.374.374 0 0 1 .156.522l-4.014 6.668Z"/><path fill="#ffe6cc" d="M239.672 359.182s1.164 6.783 3.27 4.68c2.387-2.383 5.617-6.076 6.553-6.543 0 0-1.166-3.976 1.174-5.845.935 0 1.869 2.34 6.08-.931a4.936 4.936 0 0 1 0 2.806c-.469 1.4-3.277 3.739-3.745 4.207s-8.427 11.685-9.363 12.152-2.339 1.4-4.208-.471-2.571-2.574-3.034-8.654Z"/><path fill="#0f244d" d="M218.1 433.059s-2.806.466-2.807 1.4.458 13.1 5.134 13.567c1.871 0 1.406-3.741.942-7.95a16.3 16.3 0 0 1 .472-6.547c.003-.467-3.741-.47-3.741-.47ZM235.416 420.445a2.942 2.942 0 0 1-3.275 1.4c-2.338-.47 3.263 14.033 6.536 14.971 0 0 1.4.936.938-2.806s-1.864-8.887-1.863-9.823.468-.935.936-1.4-3.272-2.342-3.272-2.342Z"/><path fill="#5f91ed" d="M216.265 389.1s9.813 11.7 8.874 16.376c0 0-8.2 20.337-7.738 27.353 0 .935 4.675 1.874 5.143 1.875s13.117-28.987 13.585-29.454 1.408-5.611-3.73-14.969c0 0 .936-.934 2.338.47s8.415 5.151 6.072 10.761-5.158 17.768-5.627 18.7 3.739 3.744 3.739 3.744 8.9-14.958 12.177-21.971-.46-10.289-2.8-13.1-9.347-9.361-10.75-9.362-21.283 9.577-21.283 9.577Z"/><path fill="url(#p)" d="M213.478 364.774 206 362.9c-1.87-.469 7.5-18.7 18.253-16.823 10.055.242 11.925 1.179 16.593 12.874 0 0-4.212 3.739-4.681 4.674s-1.411 10.287 4.2 17.307c.934 1.4-9.819-2.814-23.392 9.8-4.219 2.804-5.135-21.984-3.495-25.958Z"/><rect width="5.461" height="7.791" fill="#eaccb0" rx="2.731" transform="translate(224.441 341.093)"/><path fill="#f9e5d4" d="M234.327 333.2s.512 12.244-6 11.718-7.548-9.645-7.548-9.645l3.39-4.165Z"/><path fill="#0f244d" d="M225.425 333.472s2.761 2.766 9.442.468c0 0-.338-9.558-8.63-8.873s-7.836 8.285-5.077 14.735c.46.691 2.078-6.677 4.265-6.33Z"/></g></svg>